<?xml version="1.0" encoding="UTF-8" standalone="no"?>
<!-- Created with Inkscape (http://www.inkscape.org/) -->

<svg
   width="60mm"
   height="12mm"
   viewBox="0 0 60 12"
   version="1.1"
   id="svg8720"
   inkscape:version="1.2.2 (b0a8486541, 2022-12-01)"
   sodipodi:docname="2.svg"
   xml:space="preserve"
   xmlns:inkscape="http://www.inkscape.org/namespaces/inkscape"
   xmlns:sodipodi="http://sodipodi.sourceforge.net/DTD/sodipodi-0.dtd"
   xmlns="http://www.w3.org/2000/svg"
   xmlns:svg="http://www.w3.org/2000/svg"><sodipodi:namedview
     id="namedview8722"
     pagecolor="#ffffff"
     bordercolor="#000000"
     borderopacity="0.25"
     inkscape:showpageshadow="2"
     inkscape:pageopacity="0.0"
     inkscape:pagecheckerboard="0"
     inkscape:deskcolor="#d1d1d1"
     inkscape:document-units="mm"
     showgrid="false"
     inkscape:zoom="2.1971895"
     inkscape:cx="52.567155"
     inkscape:cy="33.224262"
     inkscape:window-width="1920"
     inkscape:window-height="961"
     inkscape:window-x="0"
     inkscape:window-y="0"
     inkscape:window-maximized="1"
     inkscape:current-layer="layer1"
     inkscape:lockguides="true" /><defs
     id="defs8717"><rect
       x="49.622643"
       y="367.16537"
       width="209.94017"
       height="58.230724"
       id="rect3879" /></defs><g
     inkscape:label="Слой 1"
     inkscape:groupmode="layer"
     id="layer1"><text
       xml:space="preserve"
       style="font-size:11.3073px;font-family:'Fira Mono';-inkscape-font-specification:'Fira Mono';fill:#151515;fill-opacity:1;stroke:#000000;stroke-width:0.42402;stroke-opacity:1"
       x="0.86782986"
       y="11.198836"
       id="text4037"
       transform="scale(1.1534907,0.86693374)"><tspan
         id="tspan4035"
         style="font-style:normal;font-variant:normal;font-weight:normal;font-stretch:normal;font-family:Pacifico;-inkscape-font-specification:Pacifico;fill:#151515;fill-opacity:1;stroke:#000000;stroke-width:0.42402;stroke-opacity:1"
         x="0.86782986"
         y="11.198836"
         sodipodi:role="line">libD   main</tspan></text><g
       id="g3592"
       transform="matrix(1.3978932,0,0,1.3978932,20.073318,-26.169054)"><g
         id="g1777"><path
           d="M 501,300.8 V 209.1 H 455.7 C 450.4,186.7 441.4,165.8 429.3,147 L 462.2,114.3 397.3,49.7 363.9,83 C 345.1,71.5 324.3,63.1 302.1,58.2 V 11 H 210 v 48.3 c -22,5.4 -42.6,14.4 -61.1,26.4 l -34.2,-34 -64.9,64.6 35.3,35.2 c -2.8,4.6 -5.3,9.2 -7.7,14 -7.5,14.3 -13.2,30 -17.1,45.7 H 11 v 91.7 h 50.3 c 1.5,6 3.3,11.9 5.3,17.8 0.1,0.4 0.3,0.8 0.4,1.2 0,0.1 0.1,0.2 0.1,0.4 4.9,14.2 11.3,27.7 19.1,40.2 l -35.5,35.3 64.9,64.6 35.1,-34.9 c 18.3,11.5 38.6,20.2 60.2,25.4 V 501 H 302 v -47.1 c 22.7,-5 44,-13.7 63.1,-25.6 l 32.2,32 64.9,-64.6 -32.1,-31.9 c 12,-19.1 20.9,-40.3 26,-62.9 H 501 Z m -94.8,64 29.9,29.8 -36.6,36.5 -29.5,-29.4 c -24.7,18.9 -54.4,31.7 -86.7,36 v 42.4 H 232 v -42.7 c -31.5,-4.6 -60.4,-17.2 -84.6,-35.7 l -31.6,31.5 -36.6,-36.5 32.4,-31.3 C 93.7,341.4 81.6,313 77.2,282 H 31.9 v -51.1 h 44 l 1.5,-3.6 C 82.1,197.6 93.9,170.2 111,147 l -32,-31.9 36.6,-36.5 31,31.9 c 24,-18.5 52.8,-31.2 84.1,-36 V 31.8 H 282 v 42.3 c 32,4.1 61.3,16.4 86,34.8 l 30.3,-30.1 35.6,36.5 -29.6,29.5 c 18.2,23.8 30.7,52.2 35.5,83.1 h 45.4 V 279 h -44.7 c -3.9,31.8 -16.1,61.1 -34.3,85.8 z"
           id="path119439"
           style="fill:#000000;fill-opacity:1;stroke:#060000;stroke-opacity:1"
           transform="matrix(0.01441832,0,0,0.01361481,19.237367,2.0152095)" /></g><g
         id="g3582"><g
           id="g119445"
           transform="matrix(0.01441832,0,0,0.01361481,19.237367,2.0152095)"
           style="fill:#000000;fill-opacity:1;stroke:#060000;stroke-opacity:1"><line
             fill="none"
             y1="501"
             x1="303.10001"
             y2="501"
             x2="302.10001"
             id="line119437"
             style="fill:#000000;fill-opacity:1;stroke:#060000;stroke-opacity:1" /><g
             id="g119443"
             style="fill:#000000;fill-opacity:1;stroke:#060000;stroke-opacity:1"><path
               d="m 257,143.4 c -61.8,0 -113.1,50 -113.1,112.6 0,62.6 51.4,112.6 113.1,112.6 61.7,0 113.1,-51.1 113.1,-112.6 0,-61.5 -51.3,-112.6 -113.1,-112.6 z m 0,204.3 c -51.3,0 -92.1,-40.7 -92.1,-91.7 0,-51.1 41.9,-91.7 92.1,-91.7 50.2,0 92.1,40.7 92.1,91.7 0.1,51.1 -41.8,91.7 -92.1,91.7 z"
               id="path119441"
               style="fill:#000000;fill-opacity:1;stroke:#060000;stroke-opacity:1" /></g></g><path
           style="fill:#000000;fill-opacity:1;stroke:#000000;stroke-width:0.0804558;stroke-opacity:1"
           d="m 85.403859,31.145515 v -1.077044 l -0.543077,-0.100556 c -1.181735,-0.218811 -2.618258,-0.790337 -3.625781,-1.442533 l -0.508118,-0.328917 -0.853587,0.800008 -0.853588,0.800009 -0.911171,-0.850707 c -0.501145,-0.467889 -0.911172,-0.876503 -0.911172,-0.908032 0,-0.03153 0.190077,-0.231831 0.422393,-0.445118 0.232316,-0.213287 0.611723,-0.563534 0.843127,-0.778327 L 78.88362,26.423767 78.636823,26.084815 C 77.94545,25.135284 77.300361,23.713861 77.095482,22.688543 l -0.112537,-0.563191 -1.220311,-0.02221 -1.220311,-0.02221 v -1.24497 -1.244969 h 1.161861 c 0.639023,0 1.18261,-0.03357 1.20797,-0.07461 0.02536,-0.04103 0.132409,-0.414807 0.237885,-0.830608 0.306716,-1.209109 0.720008,-2.084822 1.597583,-3.385073 0.08794,-0.130293 0.0025,-0.237048 -0.759431,-0.948816 l -0.858518,-0.802005 0.697607,-0.670473 c 0.383683,-0.36876 0.807723,-0.762325 0.942312,-0.874589 l 0.244705,-0.204117 0.848302,0.792217 0.848302,0.792217 0.355197,-0.240603 c 0.989777,-0.670456 2.55853,-1.313928 3.72914,-1.529622 l 0.528165,-0.09732 V 10.405122 9.2926479 h 1.327521 1.327521 v 1.0846211 c 0,1.060491 0.004,1.085421 0.181026,1.120609 1.972452,0.392126 3.151727,0.841016 4.408719,1.678175 l 0.204903,0.136465 0.827657,-0.775788 0.827658,-0.775789 0.898379,0.902928 0.898381,0.902929 -0.795684,0.743841 -0.795684,0.743841 0.361314,0.49081 c 0.695388,0.944618 1.399625,2.552482 1.561579,3.565284 l 0.05109,0.319508 h 1.236782 1.236782 v 1.247065 1.247066 H 97.88312 c -1.27068,0 -1.295901,0.0078 -1.295901,0.399859 0,0.288489 -0.419599,1.584558 -0.721721,2.229268 -0.16981,0.362365 -0.490881,0.929969 -0.713493,1.261343 l -0.404747,0.602497 0.810977,0.748328 0.810978,0.748328 -0.916809,0.864789 c -0.504245,0.475634 -0.942592,0.865815 -0.974105,0.867068 -0.03151,0.0013 -0.402147,-0.327399 -0.82363,-0.730339 l -0.766332,-0.732619 -0.423436,0.280012 c -1.069338,0.707139 -2.581695,1.312345 -3.784462,1.514445 l -0.621538,0.104437 v 1.070464 1.070465 H 86.73138 85.403859 Z m 2.937956,-4.716113 c 2.933448,-0.75025 4.937636,-3.525044 4.551468,-6.301495 -0.332815,-2.392848 -2.031116,-4.276614 -4.488488,-4.978661 -0.82839,-0.236663 -2.432982,-0.252004 -3.282531,-0.03138 -4.562444,1.184831 -6.157877,6.466095 -2.928725,9.694783 0.819714,0.819597 2.090208,1.496847 3.170092,1.68985 0.265504,0.04745 0.573248,0.102228 0.683875,0.121722 0.398905,0.07029 1.684593,-0.03888 2.294309,-0.194817 z"
           id="path3575"
           transform="scale(0.26458333)" /></g></g><path
       d="m 27.820801,0.77031676 c -0.41322,0.08752 -0.80456,0.225545 -1.174018,0.41321904 -0.07827,0.0404 -0.161585,0.08416 -0.185149,0.09847 l -0.04208,0.02525 0.0025,0.05386 c 7.26e-4,0.02945 0.01852,0.208712 0.03956,0.398912 0.02105,0.189358 0.0404,0.371981 0.04292,0.404804 l 0.0059,0.05975 -0.112773,0.08416 c -0.234804,0.175049 -0.512528,0.430893 -0.676638,0.623616 -0.03198,0.03787 -0.06228,0.06901 -0.06733,0.06901 -0.0051,0 -0.207031,-0.03956 -0.449406,-0.08837 -0.242379,-0.04797 -0.444361,-0.08584 -0.448568,-0.08248 -0.01432,0.0084 -0.142229,0.208715 -0.212081,0.329903 -0.122873,0.213764 -0.255002,0.492329 -0.341685,0.719559 -0.04292,0.114457 -0.124554,0.367774 -0.131288,0.407329 l -0.0051,0.03198 0.354307,0.285299 c 0.195248,0.156536 0.35431,0.287823 0.35431,0.292031 0,0.0042 -0.0093,0.07322 -0.02105,0.152329 -0.01094,0.07995 -0.02525,0.193566 -0.0303,0.25416 -0.01094,0.114455 -0.01515,0.462872 -0.0076,0.642972 l 0.0042,0.104358 -0.378715,0.253319 -0.378715,0.253319 0.0025,0.03366 c 0.0033,0.04966 0.05639,0.281093 0.0951,0.418271 0.06901,0.24406 0.155695,0.4788647 0.265942,0.7178757 0.05891,0.12708 0.174211,0.345893 0.191882,0.365249 0.0093,0.0093 0.0303,0.0093 0.136339,-0.0025 0.476339,-0.05302 0.739755,-0.08079 0.759953,-0.08079 0.0202,0 0.03619,0.01682 0.120349,0.127921 0.1801,0.238171 0.407327,0.4839132 0.601734,0.6505492 0.04208,0.03619 0.07743,0.07069 0.07743,0.0749 0,0.0051 -0.03955,0.2078708 -0.08837,0.4502488 -0.04797,0.24322 -0.085,0.445201 -0.08247,0.449409 0.0084,0.01347 0.212081,0.143911 0.338318,0.216289 0.166636,0.095944 0.446885,0.2305935 0.625301,0.3012875 0.152328,0.06143 0.440993,0.158218 0.494856,0.166633 l 0.0303,0.0051 0.284457,-0.35431 c 0.157375,-0.1952475 0.288663,-0.3543065 0.292873,-0.3543065 0.0042,0 0.07322,0.0093 0.152326,0.02103 0.07995,0.01094 0.194407,0.02525 0.25416,0.03114 0.122873,0.01179 0.547874,0.01429 0.666539,0.0042 l 0.07743,-0.0067 0.252476,0.3787135 c 0.138862,0.207872 0.255842,0.380397 0.260893,0.382923 0.01009,0.0067 0.265099,-0.04629 0.40312,-0.08416 0.333269,-0.09005 0.685894,-0.229755 0.9855,-0.390497 0.167477,-0.08921 0.154854,-0.07743 0.148121,-0.1422305 -0.0034,-0.0303 -0.02187,-0.20703 -0.04208,-0.392178 -0.0202,-0.185151 -0.03955,-0.365251 -0.04292,-0.400597 l -0.0051,-0.06396 0.0951,-0.07154 c 0.271834,-0.202823 0.503269,-0.41743 0.716191,-0.6623312 l 0.03956,-0.04629 0.431734,0.08584 c 0.237328,0.04713 0.440993,0.08668 0.451934,0.08836 0.01767,0.0017 0.02861,-0.0093 0.06733,-0.06564 0.152326,-0.219656 0.355148,-0.606786 0.469606,-0.896294 0.06985,-0.1767337 0.158218,-0.4376237 0.167476,-0.4948537 l 0.0051,-0.03198 -0.335795,-0.27015 c -0.184307,-0.14812 -0.344209,-0.276883 -0.355148,-0.286141 l -0.01935,-0.016 0.02188,-0.150644 c 0.01179,-0.08332 0.02609,-0.20114 0.03114,-0.260894 0.01094,-0.114454 0.01515,-0.464556 0.0076,-0.642972 l -0.0042,-0.104357 0.378717,-0.25332 0.378715,-0.253316 -0.0025,-0.03366 c -0.0033,-0.04965 -0.05639,-0.28109 -0.0951,-0.41827 -0.06985,-0.247427 -0.156536,-0.480547 -0.270153,-0.726292 -0.06059,-0.131288 -0.169158,-0.336636 -0.187674,-0.356833 -0.0093,-0.0093 -0.07911,-0.0033 -0.447724,0.03619 -0.239852,0.02609 -0.44436,0.04713 -0.454457,0.04713 -0.01347,0 -0.0404,-0.02945 -0.104357,-0.114455 -0.178418,-0.238171 -0.430053,-0.510846 -0.620252,-0.672431 -0.03787,-0.03198 -0.06901,-0.06312 -0.06901,-0.06733 0,-0.0051 0.03956,-0.207871 0.08836,-0.45025 0.04797,-0.242378 0.085,-0.44436 0.08248,-0.448567 -0.0076,-0.01262 -0.205345,-0.139703 -0.322328,-0.207872 -0.202823,-0.117823 -0.499903,-0.258367 -0.727133,-0.34505104 -0.115296,-0.04292 -0.367774,-0.124557 -0.407327,-0.131287 l -0.03198,-0.0051 -0.285299,0.35430904 c -0.159902,0.199457 -0.290347,0.354308 -0.297924,0.354308 -0.0076,0 -0.04713,-0.0059 -0.08921,-0.01262 -0.247427,-0.04124 -0.526836,-0.05891 -0.786885,-0.05049 -0.108566,0.0033 -0.214607,0.0067 -0.234805,0.0076 l -0.03703,7.26e-4 -0.253317,-0.378715 C 28.073221,0.92004856 27.953715,0.74920756 27.946984,0.74836356 c -0.0067,-7.25e-4 -0.06396,0.0093 -0.126239,0.02188 z m 1.325503,2.39516104 c 0.967826,0.113616 1.776594,0.765004 2.088823,1.68318 0.08837,0.260049 0.128762,0.513369 0.128762,0.803716 0,0.403122 -0.07995,0.74733 -0.256684,1.106688 -0.111931,0.228912 -0.262575,0.443519 -0.437626,0.626145 -0.404805,0.4216337 -0.93753,0.6850507 -1.527485,0.7540617 -0.136337,0.016 -0.419109,0.016 -0.555448,0 -0.866836,-0.10099 -1.602384,-0.624459 -1.978575,-1.4054527 -0.164952,-0.343369 -0.24322,-0.690945 -0.24322,-1.081442 0,-0.40733 0.08416,-0.766689 0.261735,-1.121837 0.378714,-0.754066 1.105847,-1.262384 1.951645,-1.365059 0.12708,-0.01515 0.4351,-0.01515 0.568073,0 z"
       id="path27005"
       style="fill:#000000;stroke:none;stroke-width:0.000841588" /><path
       d="m -14.639493,-45.526642 c 0,0.007 -0.0506,0.303694 -0.11345,0.658004 -0.0628,0.356056 -0.16581,0.944245 -0.22865,1.309027 -0.0646,0.364783 -0.11868,0.664986 -0.12043,0.668477 -0.002,0.0018 -0.10646,0.02443 -0.23213,0.04713 -0.40667,0.07854 -0.81509,0.1885 -1.20605,0.326384 -0.19199,0.06632 -0.19897,0.06807 -0.22865,0.03665 -0.0157,-0.01745 -0.3927,-0.467759 -0.83777,-1.000097 -0.44507,-0.532337 -0.82033,-0.982643 -0.83778,-1.000097 -0.0279,-0.02967 -0.0663,-0.0087 -0.8308,0.432852 -0.43983,0.254824 -0.80287,0.469504 -0.80636,0.478231 -0.003,0.0087 0.20072,0.579463 0.45205,1.268884 l 0.45729,1.25143 -0.0698,0.06283 c -0.50442,0.455542 -0.58121,0.530593 -1.07166,1.073403 l -0.0628,0.06807 -1.22874,-0.44856 c -0.67546,-0.247842 -1.2462,-0.450305 -1.26714,-0.452051 -0.0332,-0.0035 -0.10123,0.106468 -0.50267,0.797634 -0.44158,0.764472 -0.46252,0.80287 -0.43285,0.830796 0.0175,0.01745 0.47125,0.397945 1.00882,0.846504 0.53758,0.44856 0.98788,0.82556 1.0001,0.836033 0.0175,0.01745 0.009,0.06109 -0.0471,0.221661 -0.14836,0.434597 -0.2461,0.795889 -0.3229,1.200815 -0.0244,0.129157 -0.0471,0.235625 -0.0489,0.23737 -0.003,0.0018 -0.30369,0.05585 -0.66847,0.12043 -0.36479,0.06283 -0.95298,0.16581 -1.30903,0.228644 -0.35431,0.06283 -0.65102,0.113449 -0.65801,0.113449 -0.007,0 -0.014,0.424125 -0.014,0.9425 0,0.518374 0.007,0.942499 0.014,0.942499 0.007,0 0.3037,0.05062 0.65801,0.113449 0.35605,0.06283 0.94424,0.16581 1.30903,0.228643 0.36478,0.06458 0.66498,0.118686 0.66847,0.120431 0.002,0.0018 0.0244,0.108213 0.0489,0.23737 0.0768,0.404926 0.17454,0.766217 0.3229,1.200815 0.0558,0.160573 0.0646,0.204208 0.0471,0.221662 -0.0122,0.01047 -0.46252,0.387471 -1.0001,0.836031 -0.53757,0.44856 -0.99137,0.829051 -1.00882,0.846504 -0.0297,0.02792 -0.009,0.06632 0.43285,0.830797 0.40144,0.691166 0.46951,0.801124 0.50267,0.797633 0.0209,-0.0018 0.59168,-0.204208 1.26714,-0.45205 l 1.22874,-0.44856 0.0628,0.06807 c 0.49045,0.54281 0.56724,0.617861 1.07166,1.073402 l 0.0698,0.06283 -0.45729,1.25143 c -0.25133,0.689421 -0.45554,1.260157 -0.45205,1.268883 0.003,0.0087 0.36653,0.223408 0.80636,0.478232 0.76448,0.441578 0.80287,0.462523 0.8308,0.432851 0.0175,-0.01745 0.39271,-0.467759 0.83778,-1.000096 0.44507,-0.532338 0.82207,-0.982644 0.83777,-1.000097 0.0297,-0.03142 0.0367,-0.02967 0.22865,0.03665 0.39096,0.137885 0.79938,0.247843 1.20605,0.326385 0.12567,0.02269 0.23039,0.04538 0.23213,0.04713 0.002,0.0035 0.0559,0.303694 0.12043,0.668476 0.0628,0.364782 0.16581,0.952972 0.22865,1.309027 0.0628,0.354311 0.11345,0.651023 0.11345,0.658005 0,0.007 0.42238,0.01396 0.939,0.01396 h 0.93901 l 0.0908,-0.509648 c 0.0489,-0.281005 0.1536,-0.876176 0.23214,-1.32299 0.0768,-0.446815 0.14312,-0.813343 0.14661,-0.816833 0.002,-0.0018 0.12043,-0.02792 0.26355,-0.05585 0.44332,-0.08727 0.73305,-0.164065 1.17463,-0.315912 0.16058,-0.05585 0.20421,-0.06458 0.22166,-0.04713 0.0105,0.01222 0.38748,0.462523 0.8360403,1.000097 0.44856,0.537573 0.82905,0.99137 0.8465,1.008823 0.0279,0.02967 0.0663,0.0087 0.8308,-0.432851 0.43983,-0.254824 0.80287,-0.469505 0.80636,-0.478232 0.003,-0.01222 -0.2845,-0.811596 -0.8116,-2.251526 l -0.0995,-0.268787 0.11345,-0.09774 c 0.37875,-0.33162 0.67022,-0.621351 0.99486,-0.994861 l 0.096,-0.111703 0.32289,0.11694 c 1.23572,0.453796 2.18172,0.795888 2.19393,0.795888 0.009,0 0.16407,-0.256569 0.34559,-0.570736 0.17977,-0.315912 0.38921,-0.677203 0.46427,-0.80636 0.10995,-0.1885 0.13264,-0.239116 0.11519,-0.254825 -0.0122,-0.01222 -0.46602,-0.392708 -1.00883,-0.846504 -0.5428,-0.453796 -0.9966,-0.834287 -1.00882,-0.844758 -0.0175,-0.01745 -0.009,-0.06109 0.0471,-0.221662 0.14661,-0.429361 0.2618,-0.856977 0.33336,-1.242704 0.0209,-0.111703 0.0454,-0.204208 0.0524,-0.204208 0.007,0 0.3962,-0.06632 0.86571,-0.148356 0.4695,-0.08203 1.0542,-0.18501 1.29855,-0.226898 0.24435,-0.04364 0.45031,-0.07854 0.45729,-0.07854 0.009,0 0.014,-0.424125 0.014,-0.942499 0,-0.518375 -0.007,-0.9425 -0.014,-0.9425 -0.007,0 -0.30021,-0.05062 -0.64928,-0.111704 -0.35082,-0.06109 -0.94076,-0.16581 -1.31252,-0.230389 l -0.67545,-0.118685 -0.0367,-0.200717 c -0.0716,-0.382236 -0.18675,-0.811597 -0.33336,-1.239213 -0.0558,-0.160574 -0.0646,-0.204208 -0.0471,-0.221661 0.0122,-0.01047 0.46602,-0.390963 1.00882,-0.844759 0.54281,-0.453797 0.99661,-0.834287 1.00883,-0.846505 0.0174,-0.01571 -0.005,-0.06632 -0.11519,-0.254824 -0.0751,-0.129157 -0.2845,-0.490449 -0.46427,-0.806361 -0.18152,-0.314166 -0.33686,-0.570736 -0.34559,-0.570736 -0.0122,0 -0.95821,0.342093 -2.19393,0.795889 l -0.32289,0.11694 -0.096,-0.111704 c -0.32464,-0.373509 -0.61611,-0.66324 -0.99486,-0.99486 l -0.11345,-0.09774 0.0995,-0.268787 c 0.5271,-1.43993 0.81509,-2.239309 0.8116,-2.251527 -0.003,-0.0087 -0.36653,-0.223407 -0.80636,-0.478231 -0.76447,-0.441578 -0.80287,-0.462523 -0.8308,-0.432852 -0.0175,0.01745 -0.39794,0.47125 -0.8465,1.008824 -0.4485603,0.537574 -0.8255703,0.987879 -0.8360403,1.000097 -0.0174,0.01745 -0.0611,0.0087 -0.22166,-0.04713 -0.44158,-0.151847 -0.73131,-0.228644 -1.17463,-0.315912 -0.14312,-0.02792 -0.26181,-0.05411 -0.26355,-0.05585 -0.003,-0.0035 -0.0698,-0.370018 -0.14661,-0.816833 -0.0785,-0.446815 -0.18327,-1.041986 -0.23214,-1.32299 l -0.0908,-0.509648 h -0.93901 c -0.51662,0 -0.939,0.007 -0.939,0.01396 z m 1.3003,4.565887 c 1.18336,0.04189 2.45224,0.483467 3.4645603,1.204305 1.33869,0.951226 2.27072,2.357994 2.62678,3.955007 0.1117,0.504412 0.1501,0.877921 0.1501,1.431204 0,0.553282 -0.0384,0.926791 -0.1501,1.431203 -0.52536,2.36323 -2.30564,4.253465 -4.6339603,4.920196 -0.68244,0.195482 -1.36139,0.272278 -2.11364,0.242607 -2.81878,-0.111704 -5.26578,-2.045573 -6.0512,-4.778822 -0.19548,-0.677203 -0.27402,-1.361388 -0.24435,-2.113643 0.0838,-2.10317 1.19732,-4.059729 2.97236,-5.223891 0.86222,-0.5655 1.81344,-0.911083 2.86764,-1.04024 0.16756,-0.02095 0.70688,-0.04887 0.79764,-0.04014 0.0297,0.0018 0.17105,0.0087 0.31417,0.01222 z"
       id="path27745"
       style="fill:#000000;stroke:none;stroke-width:0.00174537" /><g
       id="g27765"
       transform="matrix(0.06653207,0,0,0.06653207,-2.3945899,-50.332232)"><line
         fill="none"
         y1="501"
         x1="303.10001"
         y2="501"
         x2="302.10001"
         id="line27757" /><g
         id="g27763"><path
           d="M 501,300.8 V 209.1 H 455.7 C 450.4,186.7 441.4,165.8 429.3,147 L 462.2,114.3 397.3,49.7 363.9,83 C 345.1,71.5 324.3,63.1 302.1,58.2 V 11 H 210 v 48.3 c -22,5.4 -42.6,14.4 -61.1,26.4 l -34.2,-34 -64.9,64.6 35.3,35.2 c -2.8,4.6 -5.3,9.2 -7.7,14 -7.5,14.3 -13.2,30 -17.1,45.7 H 11 v 91.7 h 50.3 c 1.5,6 3.3,11.9 5.3,17.8 0.1,0.4 0.3,0.8 0.4,1.2 0,0.1 0.1,0.2 0.1,0.4 4.9,14.2 11.3,27.7 19.1,40.2 l -35.5,35.3 64.9,64.6 35.1,-34.9 c 18.3,11.5 38.6,20.2 60.2,25.4 V 501 H 302 v -47.1 c 22.7,-5 44,-13.7 63.1,-25.6 l 32.2,32 64.9,-64.6 -32.1,-31.9 c 12,-19.1 20.9,-40.3 26,-62.9 H 501 Z m -94.8,64 29.9,29.8 -36.6,36.5 -29.5,-29.4 c -24.7,18.9 -54.4,31.7 -86.7,36 v 42.4 H 232 v -42.7 c -31.5,-4.6 -60.4,-17.2 -84.6,-35.7 l -31.6,31.5 -36.6,-36.5 32.4,-31.3 C 93.7,341.4 81.6,313 77.2,282 H 31.9 v -51.1 h 44 l 1.5,-3.6 C 82.1,197.6 93.9,170.2 111,147 l -32,-31.9 36.6,-36.5 31,31.9 c 24,-18.5 52.8,-31.2 84.1,-36 V 31.8 H 282 v 42.3 c 32,4.1 61.3,16.4 86,34.8 l 30.3,-30.1 35.6,36.5 -29.6,29.5 c 18.2,23.8 30.7,52.2 35.5,83.1 h 45.4 V 279 h -44.7 c -3.9,31.8 -16.1,61.1 -34.3,85.8 z"
           id="path27759" /><path
           d="m 257,143.4 c -61.8,0 -113.1,50 -113.1,112.6 0,62.6 51.4,112.6 113.1,112.6 61.7,0 113.1,-51.1 113.1,-112.6 0,-61.5 -51.3,-112.6 -113.1,-112.6 z m 0,204.3 c -51.3,0 -92.1,-40.7 -92.1,-91.7 0,-51.1 41.9,-91.7 92.1,-91.7 50.2,0 92.1,40.7 92.1,91.7 0.1,51.1 -41.8,91.7 -92.1,91.7 z"
           id="path27761" /></g></g><g
       style="fill:#000000"
       id="g27802"
       transform="matrix(0.05049238,0,0,0.05049238,-45.056283,16.030269)"><g
         id="g27788"><path
           d="m 487.5,208 h -21.792 c -5.402,-24.064 -14.791,-46.742 -27.971,-67.562 l 15.399,-15.4 c 9.163,-9.163 9.163,-24.071 0,-33.234 L 419.195,57.863 c -4.438,-4.439 -10.34,-6.883 -16.617,-6.883 -6.277,0 -12.179,2.445 -16.617,6.883 L 370.562,73.262 C 349.742,60.082 327.064,50.693 303,45.291 V 23.5 C 303,10.542 292.458,0 279.5,0 h -48 C 218.542,0 208,10.542 208,23.5 v 21.792 c -24.064,5.402 -46.742,14.791 -67.562,27.971 L 125.039,57.864 c -4.438,-4.439 -10.34,-6.884 -16.617,-6.884 -6.277,0 -12.179,2.445 -16.617,6.883 L 57.864,91.805 c -9.163,9.163 -9.163,24.071 0,33.234 l 15.4,15.4 C 60.084,161.259 50.695,183.937 45.293,208 H 23.5 C 10.542,208 0,218.542 0,231.5 v 48 C 0,292.458 10.542,303 23.5,303 h 21.793 c 5.402,24.064 14.791,46.741 27.971,67.561 l -15.4,15.4 c -4.438,4.438 -6.883,10.34 -6.883,16.617 0,6.277 2.445,12.178 6.883,16.617 l 33.941,33.941 c 4.438,4.438 10.34,6.883 16.617,6.883 6.277,0 12.179,-2.445 16.617,-6.883 l 15.4,-15.4 c 20.82,13.18 43.497,22.568 67.562,27.971 V 487.5 c 0,12.958 10.542,23.5 23.5,23.5 h 48 c 12.958,0 23.5,-10.542 23.5,-23.5 v -21.792 c 24.064,-5.402 46.741,-14.791 67.562,-27.971 l 15.399,15.4 c 4.438,4.438 10.34,6.883 16.617,6.883 6.277,0 12.179,-2.445 16.617,-6.883 l 33.941,-33.941 c 4.438,-4.438 6.883,-10.34 6.883,-16.617 0,-6.277 -2.445,-12.179 -6.883,-16.617 l -15.399,-15.399 c 13.18,-20.82 22.568,-43.497 27.971,-67.562 H 487.5 c 12.958,0 23.5,-10.542 23.5,-23.5 v -48 C 511,218.542 500.458,208 487.5,208 Z m 8.5,71.5 c 0,4.687 -3.813,8.5 -8.5,8.5 h -27.883 c -3.589,0 -6.675,2.543 -7.361,6.065 -5.14,26.378 -15.351,51.041 -30.348,73.303 -2.005,2.976 -1.621,6.956 0.917,9.493 l 19.705,19.705 c 1.605,1.606 2.49,3.74 2.49,6.011 0,2.27 -0.884,4.405 -2.49,6.01 l -33.941,33.941 c -1.605,1.605 -3.74,2.49 -6.011,2.49 -2.271,0 -4.405,-0.884 -6.01,-2.49 l -19.706,-19.706 c -2.537,-2.538 -6.518,-2.923 -9.493,-0.917 -22.264,14.998 -46.927,25.208 -73.304,30.348 -3.523,0.686 -6.065,3.772 -6.065,7.361 V 487.5 c 0,4.687 -3.813,8.5 -8.5,8.5 h -48 c -4.687,0 -8.5,-3.813 -8.5,-8.5 v -27.883 c 0,-3.589 -2.542,-6.675 -6.065,-7.361 -26.377,-5.14 -51.041,-15.351 -73.303,-30.348 -1.276,-0.859 -2.736,-1.28 -4.188,-1.28 -1.935,0 -3.856,0.747 -5.306,2.197 l -19.706,19.706 c -1.605,1.605 -3.739,2.49 -6.01,2.49 -2.271,0 -4.405,-0.884 -6.011,-2.49 L 68.47,408.589 c -1.605,-1.605 -2.49,-3.74 -2.49,-6.01 0,-2.271 0.884,-4.405 2.49,-6.011 l 19.706,-19.706 c 2.538,-2.538 2.922,-6.517 0.917,-9.493 -14.998,-22.263 -25.208,-46.926 -30.348,-73.303 -0.687,-3.523 -3.772,-6.065 -7.361,-6.065 H 23.5 c -4.687,0 -8.5,-3.813 -8.5,-8.5 v -48 c 0,-4.687 3.813,-8.5 8.5,-8.5 h 27.883 c 3.589,0 6.675,-2.543 7.361,-6.065 5.14,-26.377 15.351,-51.04 30.348,-73.303 2.005,-2.976 1.621,-6.956 -0.917,-9.493 L 68.47,114.432 c -3.314,-3.314 -3.314,-8.707 0,-12.021 L 102.411,68.47 c 1.605,-1.605 3.74,-2.49 6.011,-2.49 2.271,0 4.405,0.884 6.01,2.49 l 19.705,19.705 c 2.538,2.537 6.516,2.922 9.494,0.917 C 165.894,74.095 190.557,63.884 216.935,58.744 220.457,58.057 223,54.972 223,51.382 V 23.5 c 0,-4.687 3.813,-8.5 8.5,-8.5 h 48 c 4.687,0 8.5,3.813 8.5,8.5 v 27.883 c 0,3.589 2.543,6.675 6.065,7.362 26.377,5.14 51.04,15.35 73.304,30.348 2.977,2.005 6.957,1.621 9.494,-0.917 l 19.706,-19.705 c 1.605,-1.605 3.739,-2.49 6.01,-2.49 2.271,0 4.405,0.884 6.011,2.49 l 33.941,33.941 c 3.314,3.314 3.314,8.707 0,12.021 l -19.705,19.705 c -2.538,2.537 -2.922,6.517 -0.917,9.493 14.998,22.264 25.208,46.927 30.348,73.304 0.686,3.523 3.772,6.065 7.361,6.065 H 487.5 c 4.687,0 8.5,3.813 8.5,8.5 z"
           id="path27778" /><path
           d="M 119,255.5 C 119,180.234 180.234,119 255.5,119 c 18.423,0 36.292,3.605 53.108,10.715 3.815,1.613 8.216,-0.172 9.829,-3.987 1.613,-3.815 -0.172,-8.216 -3.988,-9.829 C 295.774,108.004 275.941,104 255.5,104 171.962,104 104,171.963 104,255.5 c 0,34.6 11.969,68.436 33.702,95.275 1.482,1.831 3.648,2.781 5.833,2.781 1.658,0 3.327,-0.547 4.715,-1.672 3.219,-2.607 3.716,-7.329 1.109,-10.548 C 129.782,317.159 119,286.675 119,255.5 Z"
           id="path27780" /><path
           d="m 385.298,192.614 c -3.816,1.611 -5.603,6.011 -3.992,9.827 C 388.402,219.245 392,237.097 392,255.5 392,330.766 330.767,392 255.5,392 c -31.162,0 -61.636,-10.774 -85.808,-30.337 -3.219,-2.606 -7.941,-2.109 -10.548,1.112 -2.605,3.22 -2.108,7.942 1.112,10.548 C 187.089,395.04 220.914,407 255.5,407 339.038,407 407,339.037 407,255.5 c 0,-20.419 -3.996,-40.234 -11.875,-58.894 -1.612,-3.816 -6.013,-5.603 -9.827,-3.992 z"
           id="path27782" /><path
           d="m 341.292,149.324 c 7.479,6.052 14.341,12.914 20.394,20.396 1.482,1.832 3.649,2.783 5.835,2.783 1.657,0 3.324,-0.546 4.712,-1.669 3.221,-2.605 3.719,-7.328 1.114,-10.548 -6.713,-8.299 -14.324,-15.91 -22.621,-22.623 -3.219,-2.605 -7.942,-2.107 -10.548,1.113 -2.605,3.22 -2.106,7.943 1.114,10.548 z"
           id="path27784" /><path
           d="M 255.5,136 C 189.607,136 136,189.608 136,255.5 136,321.392 189.607,375 255.5,375 321.393,375 375,321.393 375,255.5 375,189.607 321.393,136 255.5,136 Z m 0,224 C 197.878,360 151,313.122 151,255.5 151,197.878 197.878,151 255.5,151 313.122,151 360,197.879 360,255.5 360,313.121 313.122,360 255.5,360 Z"
           id="path27786" /></g></g></g></svg>
