<svg xmlns="http://www.w3.org/2000/svg" version="1.1" xmlns:xlink="http://www.w3.org/1999/xlink" xmlns:svgjs="http://svgjs.com/svgjs" width="1440" height="560" preserveAspectRatio="none" viewBox="0 0 1440 560"><g mask="url(&quot;#SvgjsMask1011&quot;)" fill="none"><rect width="1440" height="560" x="0" y="0" fill="rgba(255, 255, 255, 1)"></rect><path d="M 0,79 C 57.6,127.8 172.8,320.4 288,323 C 403.2,325.6 460.8,97.2 576,92 C 691.2,86.8 748.8,306 864,297 C 979.2,288 1036.8,24 1152,47 C 1267.2,70 1382.4,339 1440,412L1440 560L0 560z" fill="rgba(210, 227, 245, 1)"></path><path d="M 0,207 C 96,233 288,377 480,337 C 672,297 768,11.2 960,7 C 1152,2.8 1344,254.2 1440,316L1440 560L0 560z" fill="rgba(194, 207, 221, 1)"></path></g><defs><mask id="SvgjsMask1011"><rect width="1440" height="560" fill="#ffffff"></rect></mask></defs></svg>