<?xml version="1.0" encoding="UTF-8" standalone="no"?>
<!-- Created with Inkscape (http://www.inkscape.org/) -->

<svg
   width="61mm"
   height="13mm"
   viewBox="0 0 61 13"
   version="1.1"
   id="svg8720"
   inkscape:version="1.2.2 (b0a8486541, 2022-12-01)"
   sodipodi:docname="1.svg"
   xml:space="preserve"
   xmlns:inkscape="http://www.inkscape.org/namespaces/inkscape"
   xmlns:sodipodi="http://sodipodi.sourceforge.net/DTD/sodipodi-0.dtd"
   xmlns="http://www.w3.org/2000/svg"
   xmlns:svg="http://www.w3.org/2000/svg"><sodipodi:namedview
     id="namedview8722"
     pagecolor="#ffffff"
     bordercolor="#000000"
     borderopacity="0.25"
     inkscape:showpageshadow="2"
     inkscape:pageopacity="0.0"
     inkscape:pagecheckerboard="0"
     inkscape:deskcolor="#d1d1d1"
     inkscape:document-units="mm"
     showgrid="false"
     inkscape:zoom="4.394379"
     inkscape:cx="105.70322"
     inkscape:cy="26.169796"
     inkscape:window-width="1920"
     inkscape:window-height="961"
     inkscape:window-x="0"
     inkscape:window-y="0"
     inkscape:window-maximized="1"
     inkscape:current-layer="layer1"
     inkscape:lockguides="true" /><defs
     id="defs8717"><rect
       x="49.622643"
       y="367.16537"
       width="209.94017"
       height="58.230724"
       id="rect3879" /></defs><g
     inkscape:label="Слой 1"
     inkscape:groupmode="layer"
     id="layer1"><text
       xml:space="preserve"
       style="font-size:12.7385px;font-family:'Fira Mono';-inkscape-font-specification:'Fira Mono';fill:#151515;fill-opacity:0;stroke:#000000;stroke-width:0.477668;stroke-dasharray:none;stroke-opacity:1"
       x="0.53503996"
       y="12.361045"
       id="text4037"
       transform="scale(1.0571426,0.94594618)"><tspan
         id="tspan4035"
         style="font-style:normal;font-variant:normal;font-weight:normal;font-stretch:normal;font-family:Pacifico;-inkscape-font-specification:Pacifico;fill:#000000;fill-opacity:1;stroke:#000000;stroke-width:0.477668;stroke-dasharray:none;stroke-opacity:1"
         x="0.53503996"
         y="12.361045"
         sodipodi:role="line">libD   main</tspan></text><g
       id="g3592"
       transform="matrix(1.3978932,0,0,1.3978932,20.073318,-26.169054)"><g
         id="g1777"><path
           d="M 501,300.8 V 209.1 H 455.7 C 450.4,186.7 441.4,165.8 429.3,147 L 462.2,114.3 397.3,49.7 363.9,83 C 345.1,71.5 324.3,63.1 302.1,58.2 V 11 H 210 v 48.3 c -22,5.4 -42.6,14.4 -61.1,26.4 l -34.2,-34 -64.9,64.6 35.3,35.2 c -2.8,4.6 -5.3,9.2 -7.7,14 -7.5,14.3 -13.2,30 -17.1,45.7 H 11 v 91.7 h 50.3 c 1.5,6 3.3,11.9 5.3,17.8 0.1,0.4 0.3,0.8 0.4,1.2 0,0.1 0.1,0.2 0.1,0.4 4.9,14.2 11.3,27.7 19.1,40.2 l -35.5,35.3 64.9,64.6 35.1,-34.9 c 18.3,11.5 38.6,20.2 60.2,25.4 V 501 H 302 v -47.1 c 22.7,-5 44,-13.7 63.1,-25.6 l 32.2,32 64.9,-64.6 -32.1,-31.9 c 12,-19.1 20.9,-40.3 26,-62.9 H 501 Z m -94.8,64 29.9,29.8 -36.6,36.5 -29.5,-29.4 c -24.7,18.9 -54.4,31.7 -86.7,36 v 42.4 H 232 v -42.7 c -31.5,-4.6 -60.4,-17.2 -84.6,-35.7 l -31.6,31.5 -36.6,-36.5 32.4,-31.3 C 93.7,341.4 81.6,313 77.2,282 H 31.9 v -51.1 h 44 l 1.5,-3.6 C 82.1,197.6 93.9,170.2 111,147 l -32,-31.9 36.6,-36.5 31,31.9 c 24,-18.5 52.8,-31.2 84.1,-36 V 31.8 H 282 v 42.3 c 32,4.1 61.3,16.4 86,34.8 l 30.3,-30.1 35.6,36.5 -29.6,29.5 c 18.2,23.8 30.7,52.2 35.5,83.1 h 45.4 V 279 h -44.7 c -3.9,31.8 -16.1,61.1 -34.3,85.8 z"
           id="path119439"
           style="fill:#000000;fill-opacity:1;stroke:#060000;stroke-opacity:1"
           transform="matrix(0.01441832,0,0,0.01361481,19.237367,2.0152095)" /></g><g
         id="g3582"><g
           id="g119445"
           transform="matrix(0.01441832,0,0,0.01361481,19.237367,2.0152095)"
           style="fill:#000000;fill-opacity:1;stroke:#060000;stroke-opacity:1"><line
             fill="none"
             y1="501"
             x1="303.10001"
             y2="501"
             x2="302.10001"
             id="line119437"
             style="fill:#000000;fill-opacity:1;stroke:#060000;stroke-opacity:1" /><g
             id="g119443"
             style="fill:#000000;fill-opacity:1;stroke:#060000;stroke-opacity:1"><path
               d="m 257,143.4 c -61.8,0 -113.1,50 -113.1,112.6 0,62.6 51.4,112.6 113.1,112.6 61.7,0 113.1,-51.1 113.1,-112.6 0,-61.5 -51.3,-112.6 -113.1,-112.6 z m 0,204.3 c -51.3,0 -92.1,-40.7 -92.1,-91.7 0,-51.1 41.9,-91.7 92.1,-91.7 50.2,0 92.1,40.7 92.1,91.7 0.1,51.1 -41.8,91.7 -92.1,91.7 z"
               id="path119441"
               style="fill:#000000;fill-opacity:1;stroke:#060000;stroke-opacity:1" /></g></g><path
           style="fill:#000000;fill-opacity:1;stroke:#000000;stroke-width:0.0804558;stroke-opacity:1"
           d="m 85.403859,31.145515 v -1.077044 l -0.543077,-0.100556 c -1.181735,-0.218811 -2.618258,-0.790337 -3.625781,-1.442533 l -0.508118,-0.328917 -0.853587,0.800008 -0.853588,0.800009 -0.911171,-0.850707 c -0.501145,-0.467889 -0.911172,-0.876503 -0.911172,-0.908032 0,-0.03153 0.190077,-0.231831 0.422393,-0.445118 0.232316,-0.213287 0.611723,-0.563534 0.843127,-0.778327 L 78.88362,26.423767 78.636823,26.084815 C 77.94545,25.135284 77.300361,23.713861 77.095482,22.688543 l -0.112537,-0.563191 -1.220311,-0.02221 -1.220311,-0.02221 v -1.24497 -1.244969 h 1.161861 c 0.639023,0 1.18261,-0.03357 1.20797,-0.07461 0.02536,-0.04103 0.132409,-0.414807 0.237885,-0.830608 0.306716,-1.209109 0.720008,-2.084822 1.597583,-3.385073 0.08794,-0.130293 0.0025,-0.237048 -0.759431,-0.948816 l -0.858518,-0.802005 0.697607,-0.670473 c 0.383683,-0.36876 0.807723,-0.762325 0.942312,-0.874589 l 0.244705,-0.204117 0.848302,0.792217 0.848302,0.792217 0.355197,-0.240603 c 0.989777,-0.670456 2.55853,-1.313928 3.72914,-1.529622 l 0.528165,-0.09732 V 10.405122 9.2926479 h 1.327521 1.327521 v 1.0846211 c 0,1.060491 0.004,1.085421 0.181026,1.120609 1.972452,0.392126 3.151727,0.841016 4.408719,1.678175 l 0.204903,0.136465 0.827657,-0.775788 0.827658,-0.775789 0.898379,0.902928 0.898381,0.902929 -0.795684,0.743841 -0.795684,0.743841 0.361314,0.49081 c 0.695388,0.944618 1.399625,2.552482 1.561579,3.565284 l 0.05109,0.319508 h 1.236782 1.236782 v 1.247065 1.247066 H 97.88312 c -1.27068,0 -1.295901,0.0078 -1.295901,0.399859 0,0.288489 -0.419599,1.584558 -0.721721,2.229268 -0.16981,0.362365 -0.490881,0.929969 -0.713493,1.261343 l -0.404747,0.602497 0.810977,0.748328 0.810978,0.748328 -0.916809,0.864789 c -0.504245,0.475634 -0.942592,0.865815 -0.974105,0.867068 -0.03151,0.0013 -0.402147,-0.327399 -0.82363,-0.730339 l -0.766332,-0.732619 -0.423436,0.280012 c -1.069338,0.707139 -2.581695,1.312345 -3.784462,1.514445 l -0.621538,0.104437 v 1.070464 1.070465 H 86.73138 85.403859 Z m 2.937956,-4.716113 c 2.933448,-0.75025 4.937636,-3.525044 4.551468,-6.301495 -0.332815,-2.392848 -2.031116,-4.276614 -4.488488,-4.978661 -0.82839,-0.236663 -2.432982,-0.252004 -3.282531,-0.03138 -4.562444,1.184831 -6.157877,6.466095 -2.928725,9.694783 0.819714,0.819597 2.090208,1.496847 3.170092,1.68985 0.265504,0.04745 0.573248,0.102228 0.683875,0.121722 0.398905,0.07029 1.684593,-0.03888 2.294309,-0.194817 z"
           id="path3575"
           transform="scale(0.26458333)" /></g></g><path
       d="m 27.436009,2.9703887 c -0.463086,0.08777 -0.901651,0.22619 -1.315693,0.4144012 -0.08772,0.04052 -0.181085,0.084399 -0.207492,0.098753 l -0.04715,0.025324 0.0028,0.054018 c 8.14e-4,0.029538 0.02075,0.2093089 0.04434,0.4000524 0.02359,0.1898994 0.04528,0.3730445 0.04811,0.4059625 l 0.0067,0.059918 -0.12638,0.084399 c -0.263138,0.1755494 -0.574377,0.432125 -0.75829,0.6253996 -0.03583,0.037979 -0.0698,0.069202 -0.07545,0.069202 -0.0057,0 -0.232014,-0.039677 -0.503638,-0.088626 -0.271628,-0.048106 -0.497985,-0.086085 -0.5027,-0.082713 -0.01605,0.00843 -0.159392,0.2093115 -0.237673,0.3308464 -0.137696,0.2143749 -0.285774,0.4937365 -0.382918,0.7216174 -0.04809,0.1147793 -0.13958,0.3688252 -0.147131,0.4084936 l -0.0057,0.032066 0.397064,0.2861146 c 0.21881,0.1569839 0.397066,0.2886469 0.397066,0.2928662 0,0.00415 -0.01043,0.073429 -0.02359,0.1527647 -0.01232,0.080185 -0.0283,0.19412 -0.03395,0.2548874 -0.01232,0.1147794 -0.01698,0.4641964 -0.0085,0.6448104 l 0.0046,0.1046525 -0.424416,0.2540446 -0.424417,0.2540433 0.0028,0.033752 c 0.0038,0.049804 0.06319,0.2818966 0.106572,0.4194671 0.07733,0.244758 0.174485,0.4802328 0.298035,0.7199279 0.06602,0.1274465 0.195235,0.3468815 0.215038,0.3662935 0.01043,0.0093 0.03395,0.0093 0.152792,-0.0025 0.533821,-0.05318 0.829025,-0.08103 0.85166,-0.08103 0.02263,0 0.04056,0.01687 0.134871,0.128286 0.201833,0.238852 0.456481,0.485298 0.674348,0.652411 0.04716,0.03629 0.08678,0.07089 0.08678,0.07512 0,0.0051 -0.04432,0.208464 -0.09904,0.451536 -0.05376,0.243915 -0.09526,0.446474 -0.09242,0.450693 0.0094,0.01351 0.237673,0.144324 0.379144,0.216909 0.186745,0.09621 0.500813,0.231253 0.700758,0.302149 0.170712,0.0616 0.49421,0.158671 0.554573,0.167109 l 0.03395,0.0051 0.318784,-0.355323 c 0.176366,-0.195806 0.323497,-0.355321 0.328215,-0.355321 0.0046,0 0.08206,0.0093 0.170708,0.0211 0.08961,0.01102 0.217867,0.02532 0.284832,0.03122 0.137696,0.0118 0.613988,0.01433 0.746974,0.0041 l 0.08678,-0.0067 0.282943,0.379797 c 0.15562,0.208468 0.286717,0.381486 0.292376,0.38402 0.0113,0.0067 0.29709,-0.04642 0.451767,-0.0844 0.373487,-0.09031 0.768665,-0.230413 1.104426,-0.391615 0.187686,-0.08947 0.17354,-0.07766 0.165995,-0.142638 -0.0038,-0.03039 -0.0245,-0.207622 -0.04716,-0.393298 -0.02263,-0.185682 -0.04432,-0.366298 -0.04809,-0.401744 l -0.0057,-0.06415 0.106572,-0.07174 c 0.304637,-0.203402 0.564001,-0.418622 0.802617,-0.664224 l 0.04434,-0.04642 0.483834,0.08609 c 0.265967,0.04726 0.494209,0.08693 0.506471,0.08861 0.01981,0.0017 0.03207,-0.0093 0.07545,-0.06583 0.170708,-0.220284 0.398005,-0.608521 0.526275,-0.8988576 0.07827,-0.177239 0.177312,-0.4388746 0.187687,-0.4962682 l 0.0057,-0.032066 -0.376317,-0.270783 C 33.400343,8.7839278 33.221145,8.6547971 33.208885,8.6455118 l -0.02169,-0.016052 0.02452,-0.1510738 c 0.01319,-0.083556 0.02924,-0.2017157 0.03489,-0.2616404 0.01232,-0.1147793 0.01698,-0.4658858 0.0085,-0.6448117 l -0.0046,-0.1046525 0.424419,-0.2540446 0.424417,-0.2540394 -0.0028,-0.033752 c -0.0038,-0.049791 -0.06319,-0.281894 -0.106573,-0.4194671 -0.07827,-0.2481345 -0.175426,-0.4819215 -0.302753,-0.728369 -0.0679,-0.1316643 -0.189572,-0.3375994 -0.210322,-0.3578543 -0.01043,-0.00934 -0.08866,-0.00324 -0.501754,0.036293 -0.268797,0.026166 -0.497983,0.047263 -0.509298,0.047263 -0.0151,0 -0.04528,-0.029538 -0.116947,-0.1147793 -0.199949,-0.2388518 -0.481949,-0.5123072 -0.695101,-0.6743533 -0.04244,-0.032066 -0.07733,-0.063302 -0.07733,-0.067516 0,-0.00506 0.04434,-0.2084661 0.09902,-0.4515384 0.05376,-0.2430711 0.09525,-0.4456309 0.09243,-0.4498502 C 31.759422,3.7325658 31.537846,3.6051701 31.406745,3.5368069 31.179302,3.4186433 30.846372,3.2777002 30.591721,3.1907689 30.462516,3.1477332 30.179565,3.0658628 30.13524,3.0591059 l -0.03583,-0.00506 -0.319729,0.3553232 c -0.179198,0.2000275 -0.325384,0.3553207 -0.333876,0.3553207 -0.0085,0 -0.05281,-0.00596 -0.09998,-0.012707 -0.277285,-0.041363 -0.590412,-0.059075 -0.881842,-0.050634 -0.12167,0.00324 -0.240505,0.00674 -0.26314,0.00765 l -0.0415,7.287e-4 -0.283887,-0.3797987 C 27.71889,3.1206099 27.584963,2.9492811 27.577419,2.9484344 c -0.0075,-7.274e-4 -0.07168,0.00934 -0.141478,0.021939 z m 1.485459,2.4020118 c 1.084619,0.1139366 1.990985,0.7671921 2.340892,1.6879941 0.09904,0.2607924 0.144304,0.514837 0.144304,0.806015 0,0.4042743 -0.0896,0.7494668 -0.287658,1.1098535 -0.125438,0.2295664 -0.294262,0.4447868 -0.490437,0.6279353 -0.453656,0.4228386 -1.050667,0.6870096 -1.711815,0.7562176 -0.15279,0.01605 -0.469685,0.01605 -0.622476,0 -0.971443,-0.101279 -1.795753,-0.6262446 -2.21734,-1.4094713 -0.184858,-0.344351 -0.272572,-0.6929213 -0.272572,-1.0845351 0,-0.4084949 0.09431,-0.7688815 0.29332,-1.1250463 0.424415,-0.7562223 1.239296,-1.2659946 2.18716,-1.3689628 0.14242,-0.015197 0.487606,-0.015197 0.636626,0 z"
       id="path27005"
       style="fill:#000000;stroke:none;stroke-width:0.000892195" /><path
       d="m 43.188683,-19.583271 c 0,0.0025 -0.01821,0.109265 -0.04082,0.236742 -0.02259,0.128105 -0.05966,0.339729 -0.08227,0.470973 -0.02324,0.131245 -0.0427,0.239255 -0.04333,0.240511 -7.19e-4,6.48e-4 -0.0383,0.0088 -0.08352,0.01696 -0.146316,0.02826 -0.293261,0.06782 -0.433924,0.117429 -0.06908,0.02386 -0.07159,0.02449 -0.08226,0.01319 -0.0056,-0.0063 -0.14129,-0.168294 -0.301421,-0.359823 -0.160131,-0.191529 -0.295145,-0.353544 -0.301424,-0.359824 -0.01004,-0.01067 -0.02385,-0.0031 -0.298912,0.155735 -0.158246,0.09168 -0.288864,0.168923 -0.29012,0.172062 -0.0011,0.0031 0.07222,0.208485 0.162643,0.456531 l 0.164528,0.45025 -0.02511,0.02261 c -0.181484,0.163899 -0.209112,0.190901 -0.385571,0.386198 l -0.0226,0.02449 -0.442087,-0.161387 c -0.243023,-0.08917 -0.448369,-0.162014 -0.455903,-0.162643 -0.01194,-0.0013 -0.03642,0.03831 -0.180855,0.28698 -0.158875,0.275049 -0.166409,0.288864 -0.155734,0.298911 0.0063,0.0063 0.16955,0.143177 0.362962,0.304563 0.193415,0.161387 0.355428,0.297028 0.359825,0.300796 0.0063,0.0063 0.0032,0.02198 -0.01695,0.07975 -0.05338,0.156363 -0.08854,0.286352 -0.116176,0.43204 -0.0088,0.04647 -0.01695,0.08478 -0.01759,0.0854 -0.0011,6.47e-4 -0.109264,0.02009 -0.240508,0.04333 -0.131247,0.02261 -0.342871,0.05966 -0.470974,0.08226 -0.127477,0.02261 -0.23423,0.04082 -0.236745,0.04082 -0.0025,0 -0.005,0.152596 -0.005,0.339101 0,0.186506 0.0025,0.339101 0.005,0.339101 0.0025,0 0.109268,0.01821 0.236745,0.04082 0.128103,0.02261 0.339727,0.05966 0.470974,0.08226 0.131244,0.02323 0.239253,0.0427 0.240508,0.04333 7.2e-4,6.47e-4 0.0088,0.03893 0.01759,0.0854 0.02763,0.145688 0.0628,0.275676 0.116176,0.43204 0.02008,0.05777 0.02324,0.07347 0.01695,0.07975 -0.0044,0.0038 -0.16641,0.139408 -0.359825,0.300795 -0.193412,0.161387 -0.356684,0.298283 -0.362962,0.304563 -0.01069,0.01004 -0.0032,0.02386 0.155734,0.298911 0.144434,0.248674 0.168925,0.288236 0.180855,0.28698 0.0075,-6.48e-4 0.21288,-0.07347 0.455903,-0.162643 l 0.442087,-0.161387 0.0226,0.02449 c 0.176459,0.195297 0.204087,0.2223 0.385571,0.386198 l 0.02511,0.02261 -0.164528,0.45025 c -0.09043,0.248046 -0.163898,0.453391 -0.162643,0.45653 0.0011,0.0031 0.131874,0.08038 0.29012,0.172063 0.275051,0.158875 0.288863,0.16641 0.298912,0.155735 0.0063,-0.0063 0.141293,-0.168295 0.301424,-0.359824 0.160131,-0.191529 0.295772,-0.353544 0.301421,-0.359823 0.01068,-0.01131 0.0132,-0.01068 0.08226,0.01319 0.140663,0.04961 0.287608,0.08917 0.433924,0.11743 0.04521,0.0082 0.08289,0.01633 0.08352,0.01696 7.2e-4,0.0013 0.02011,0.109266 0.04333,0.240511 0.0226,0.131244 0.05966,0.342868 0.08227,0.470973 0.02259,0.127477 0.04082,0.234231 0.04082,0.236743 0,0.0025 0.151967,0.005 0.337842,0.005 h 0.337845 l 0.03267,-0.183366 c 0.01759,-0.101103 0.05526,-0.315239 0.08352,-0.475997 0.02763,-0.160759 0.05149,-0.292632 0.05275,-0.293888 7.19e-4,-6.47e-4 0.04333,-0.01004 0.09482,-0.02009 0.159502,-0.0314 0.263743,-0.05903 0.422619,-0.113662 0.05777,-0.02009 0.07347,-0.02323 0.07975,-0.01696 0.0038,0.0044 0.139411,0.16641 0.300798,0.359823 0.161387,0.193413 0.298283,0.356684 0.304561,0.362964 0.01004,0.01068 0.02385,0.0031 0.298913,-0.155735 0.158246,-0.09168 0.288863,-0.168923 0.290119,-0.172063 0.0011,-0.0044 -0.10236,-0.292003 -0.292005,-0.810074 l -0.0358,-0.09671 0.04082,-0.03517 c 0.13627,-0.119313 0.241138,-0.223555 0.35794,-0.35794 l 0.03454,-0.04019 0.116172,0.04207 c 0.444598,0.163271 0.784959,0.286352 0.789352,0.286352 0.0032,0 0.05903,-0.09231 0.124339,-0.205345 0.06468,-0.113661 0.140033,-0.24365 0.167039,-0.290119 0.03956,-0.06782 0.04772,-0.08603 0.04144,-0.09168 -0.0044,-0.0044 -0.167668,-0.141292 -0.362965,-0.304563 -0.195294,-0.163271 -0.358566,-0.300167 -0.362963,-0.303935 -0.0063,-0.0063 -0.0032,-0.02198 0.01695,-0.07975 0.05275,-0.154479 0.09419,-0.308331 0.11994,-0.447111 0.0075,-0.04019 0.01633,-0.07347 0.01885,-0.07347 0.0025,0 0.142549,-0.02386 0.311473,-0.05338 0.168921,-0.02951 0.37929,-0.06656 0.467204,-0.08163 0.08792,-0.0157 0.162017,-0.02826 0.164528,-0.02826 0.0032,0 0.005,-0.152595 0.005,-0.339101 0,-0.186505 -0.0025,-0.339101 -0.005,-0.339101 -0.0025,0 -0.108012,-0.01821 -0.233604,-0.04019 -0.126221,-0.02198 -0.338475,-0.05966 -0.47223,-0.08289 l -0.243019,-0.0427 -0.0132,-0.07221 c -0.02576,-0.137525 -0.06719,-0.292004 -0.11994,-0.445855 -0.02008,-0.05777 -0.02324,-0.07347 -0.01695,-0.07975 0.0044,-0.0038 0.167669,-0.140665 0.362963,-0.303935 0.195297,-0.163272 0.358569,-0.300168 0.362965,-0.304563 0.0063,-0.0057 -0.0018,-0.02386 -0.04144,-0.09168 -0.02702,-0.04647 -0.10236,-0.176458 -0.167039,-0.29012 -0.06531,-0.113034 -0.121198,-0.205345 -0.124339,-0.205345 -0.0044,0 -0.344754,0.123082 -0.789352,0.286352 l -0.116172,0.04207 -0.03454,-0.04019 c -0.116802,-0.134384 -0.22167,-0.238626 -0.35794,-0.357939 l -0.04082,-0.03517 0.0358,-0.09671 c 0.189645,-0.51807 0.293261,-0.805678 0.292005,-0.810074 -0.0011,-0.0031 -0.131873,-0.08038 -0.290119,-0.172062 -0.275048,-0.158875 -0.288864,-0.166411 -0.298913,-0.155736 -0.0063,0.0063 -0.143174,0.169551 -0.304561,0.362964 -0.161387,0.193413 -0.297031,0.355428 -0.300798,0.359824 -0.0063,0.0063 -0.02198,0.0031 -0.07975,-0.01696 -0.158876,-0.05463 -0.263117,-0.08226 -0.422619,-0.113662 -0.05149,-0.01005 -0.0942,-0.01947 -0.09482,-0.02009 -0.0011,-0.0013 -0.02511,-0.133128 -0.05275,-0.293887 -0.02824,-0.160759 -0.06594,-0.374895 -0.08352,-0.475997 l -0.03267,-0.183366 h -0.337845 c -0.185875,0 -0.337842,0.0025 -0.337842,0.005 z m 0.467833,1.642755 c 0.42576,0.01507 0.882289,0.173946 1.246511,0.433296 0.481645,0.34224 0.816979,0.84838 0.945086,1.422967 0.04019,0.181482 0.054,0.315866 0.054,0.514931 0,0.199065 -0.01382,0.33345 -0.054,0.514931 -0.189019,0.850264 -0.829544,1.53035 -1.667248,1.770232 -0.245534,0.07033 -0.489813,0.09796 -0.760464,0.08729 -1.014166,-0.04019 -1.894569,-0.735975 -2.177154,-1.719368 -0.07033,-0.24365 -0.09859,-0.489812 -0.08791,-0.760465 0.03015,-0.756697 0.430783,-1.460645 1.069422,-1.879498 0.310217,-0.20346 0.652456,-0.327797 1.031745,-0.374267 0.06029,-0.0075 0.254328,-0.01758 0.286982,-0.01444 0.01069,6.48e-4 0.06154,0.0031 0.113035,0.0044 z"
       id="path27745"
       style="fill:#000000;stroke:none;stroke-width:0.000627965" /><g
       id="g27765"
       transform="matrix(0.01818127,0,0,0.01818127,32.588271,-32.330056)"><line
         fill="none"
         y1="501"
         x1="303.10001"
         y2="501"
         x2="302.10001"
         id="line27757" /><g
         id="g27763"><path
           d="M 501,300.8 V 209.1 H 455.7 C 450.4,186.7 441.4,165.8 429.3,147 L 462.2,114.3 397.3,49.7 363.9,83 C 345.1,71.5 324.3,63.1 302.1,58.2 V 11 H 210 v 48.3 c -22,5.4 -42.6,14.4 -61.1,26.4 l -34.2,-34 -64.9,64.6 35.3,35.2 c -2.8,4.6 -5.3,9.2 -7.7,14 -7.5,14.3 -13.2,30 -17.1,45.7 H 11 v 91.7 h 50.3 c 1.5,6 3.3,11.9 5.3,17.8 0.1,0.4 0.3,0.8 0.4,1.2 0,0.1 0.1,0.2 0.1,0.4 4.9,14.2 11.3,27.7 19.1,40.2 l -35.5,35.3 64.9,64.6 35.1,-34.9 c 18.3,11.5 38.6,20.2 60.2,25.4 V 501 H 302 v -47.1 c 22.7,-5 44,-13.7 63.1,-25.6 l 32.2,32 64.9,-64.6 -32.1,-31.9 c 12,-19.1 20.9,-40.3 26,-62.9 H 501 Z m -94.8,64 29.9,29.8 -36.6,36.5 -29.5,-29.4 c -24.7,18.9 -54.4,31.7 -86.7,36 v 42.4 H 232 v -42.7 c -31.5,-4.6 -60.4,-17.2 -84.6,-35.7 l -31.6,31.5 -36.6,-36.5 32.4,-31.3 C 93.7,341.4 81.6,313 77.2,282 H 31.9 v -51.1 h 44 l 1.5,-3.6 C 82.1,197.6 93.9,170.2 111,147 l -32,-31.9 36.6,-36.5 31,31.9 c 24,-18.5 52.8,-31.2 84.1,-36 V 31.8 H 282 v 42.3 c 32,4.1 61.3,16.4 86,34.8 l 30.3,-30.1 35.6,36.5 -29.6,29.5 c 18.2,23.8 30.7,52.2 35.5,83.1 h 45.4 V 279 h -44.7 c -3.9,31.8 -16.1,61.1 -34.3,85.8 z"
           id="path27759" /><path
           d="m 257,143.4 c -61.8,0 -113.1,50 -113.1,112.6 0,62.6 51.4,112.6 113.1,112.6 61.7,0 113.1,-51.1 113.1,-112.6 0,-61.5 -51.3,-112.6 -113.1,-112.6 z m 0,204.3 c -51.3,0 -92.1,-40.7 -92.1,-91.7 0,-51.1 41.9,-91.7 92.1,-91.7 50.2,0 92.1,40.7 92.1,91.7 0.1,51.1 -41.8,91.7 -92.1,91.7 z"
           id="path27761" /></g></g><g
       style="fill:#000000"
       id="g27802"
       transform="matrix(0.05049238,0,0,0.05049238,-45.056283,16.030269)"><g
         id="g27788"><path
           d="m 487.5,208 h -21.792 c -5.402,-24.064 -14.791,-46.742 -27.971,-67.562 l 15.399,-15.4 c 9.163,-9.163 9.163,-24.071 0,-33.234 L 419.195,57.863 c -4.438,-4.439 -10.34,-6.883 -16.617,-6.883 -6.277,0 -12.179,2.445 -16.617,6.883 L 370.562,73.262 C 349.742,60.082 327.064,50.693 303,45.291 V 23.5 C 303,10.542 292.458,0 279.5,0 h -48 C 218.542,0 208,10.542 208,23.5 v 21.792 c -24.064,5.402 -46.742,14.791 -67.562,27.971 L 125.039,57.864 c -4.438,-4.439 -10.34,-6.884 -16.617,-6.884 -6.277,0 -12.179,2.445 -16.617,6.883 L 57.864,91.805 c -9.163,9.163 -9.163,24.071 0,33.234 l 15.4,15.4 C 60.084,161.259 50.695,183.937 45.293,208 H 23.5 C 10.542,208 0,218.542 0,231.5 v 48 C 0,292.458 10.542,303 23.5,303 h 21.793 c 5.402,24.064 14.791,46.741 27.971,67.561 l -15.4,15.4 c -4.438,4.438 -6.883,10.34 -6.883,16.617 0,6.277 2.445,12.178 6.883,16.617 l 33.941,33.941 c 4.438,4.438 10.34,6.883 16.617,6.883 6.277,0 12.179,-2.445 16.617,-6.883 l 15.4,-15.4 c 20.82,13.18 43.497,22.568 67.562,27.971 V 487.5 c 0,12.958 10.542,23.5 23.5,23.5 h 48 c 12.958,0 23.5,-10.542 23.5,-23.5 v -21.792 c 24.064,-5.402 46.741,-14.791 67.562,-27.971 l 15.399,15.4 c 4.438,4.438 10.34,6.883 16.617,6.883 6.277,0 12.179,-2.445 16.617,-6.883 l 33.941,-33.941 c 4.438,-4.438 6.883,-10.34 6.883,-16.617 0,-6.277 -2.445,-12.179 -6.883,-16.617 l -15.399,-15.399 c 13.18,-20.82 22.568,-43.497 27.971,-67.562 H 487.5 c 12.958,0 23.5,-10.542 23.5,-23.5 v -48 C 511,218.542 500.458,208 487.5,208 Z m 8.5,71.5 c 0,4.687 -3.813,8.5 -8.5,8.5 h -27.883 c -3.589,0 -6.675,2.543 -7.361,6.065 -5.14,26.378 -15.351,51.041 -30.348,73.303 -2.005,2.976 -1.621,6.956 0.917,9.493 l 19.705,19.705 c 1.605,1.606 2.49,3.74 2.49,6.011 0,2.27 -0.884,4.405 -2.49,6.01 l -33.941,33.941 c -1.605,1.605 -3.74,2.49 -6.011,2.49 -2.271,0 -4.405,-0.884 -6.01,-2.49 l -19.706,-19.706 c -2.537,-2.538 -6.518,-2.923 -9.493,-0.917 -22.264,14.998 -46.927,25.208 -73.304,30.348 -3.523,0.686 -6.065,3.772 -6.065,7.361 V 487.5 c 0,4.687 -3.813,8.5 -8.5,8.5 h -48 c -4.687,0 -8.5,-3.813 -8.5,-8.5 v -27.883 c 0,-3.589 -2.542,-6.675 -6.065,-7.361 -26.377,-5.14 -51.041,-15.351 -73.303,-30.348 -1.276,-0.859 -2.736,-1.28 -4.188,-1.28 -1.935,0 -3.856,0.747 -5.306,2.197 l -19.706,19.706 c -1.605,1.605 -3.739,2.49 -6.01,2.49 -2.271,0 -4.405,-0.884 -6.011,-2.49 L 68.47,408.589 c -1.605,-1.605 -2.49,-3.74 -2.49,-6.01 0,-2.271 0.884,-4.405 2.49,-6.011 l 19.706,-19.706 c 2.538,-2.538 2.922,-6.517 0.917,-9.493 -14.998,-22.263 -25.208,-46.926 -30.348,-73.303 -0.687,-3.523 -3.772,-6.065 -7.361,-6.065 H 23.5 c -4.687,0 -8.5,-3.813 -8.5,-8.5 v -48 c 0,-4.687 3.813,-8.5 8.5,-8.5 h 27.883 c 3.589,0 6.675,-2.543 7.361,-6.065 5.14,-26.377 15.351,-51.04 30.348,-73.303 2.005,-2.976 1.621,-6.956 -0.917,-9.493 L 68.47,114.432 c -3.314,-3.314 -3.314,-8.707 0,-12.021 L 102.411,68.47 c 1.605,-1.605 3.74,-2.49 6.011,-2.49 2.271,0 4.405,0.884 6.01,2.49 l 19.705,19.705 c 2.538,2.537 6.516,2.922 9.494,0.917 C 165.894,74.095 190.557,63.884 216.935,58.744 220.457,58.057 223,54.972 223,51.382 V 23.5 c 0,-4.687 3.813,-8.5 8.5,-8.5 h 48 c 4.687,0 8.5,3.813 8.5,8.5 v 27.883 c 0,3.589 2.543,6.675 6.065,7.362 26.377,5.14 51.04,15.35 73.304,30.348 2.977,2.005 6.957,1.621 9.494,-0.917 l 19.706,-19.705 c 1.605,-1.605 3.739,-2.49 6.01,-2.49 2.271,0 4.405,0.884 6.011,2.49 l 33.941,33.941 c 3.314,3.314 3.314,8.707 0,12.021 l -19.705,19.705 c -2.538,2.537 -2.922,6.517 -0.917,9.493 14.998,22.264 25.208,46.927 30.348,73.304 0.686,3.523 3.772,6.065 7.361,6.065 H 487.5 c 4.687,0 8.5,3.813 8.5,8.5 z"
           id="path27778" /><path
           d="M 119,255.5 C 119,180.234 180.234,119 255.5,119 c 18.423,0 36.292,3.605 53.108,10.715 3.815,1.613 8.216,-0.172 9.829,-3.987 1.613,-3.815 -0.172,-8.216 -3.988,-9.829 C 295.774,108.004 275.941,104 255.5,104 171.962,104 104,171.963 104,255.5 c 0,34.6 11.969,68.436 33.702,95.275 1.482,1.831 3.648,2.781 5.833,2.781 1.658,0 3.327,-0.547 4.715,-1.672 3.219,-2.607 3.716,-7.329 1.109,-10.548 C 129.782,317.159 119,286.675 119,255.5 Z"
           id="path27780" /><path
           d="m 385.298,192.614 c -3.816,1.611 -5.603,6.011 -3.992,9.827 C 388.402,219.245 392,237.097 392,255.5 392,330.766 330.767,392 255.5,392 c -31.162,0 -61.636,-10.774 -85.808,-30.337 -3.219,-2.606 -7.941,-2.109 -10.548,1.112 -2.605,3.22 -2.108,7.942 1.112,10.548 C 187.089,395.04 220.914,407 255.5,407 339.038,407 407,339.037 407,255.5 c 0,-20.419 -3.996,-40.234 -11.875,-58.894 -1.612,-3.816 -6.013,-5.603 -9.827,-3.992 z"
           id="path27782" /><path
           d="m 341.292,149.324 c 7.479,6.052 14.341,12.914 20.394,20.396 1.482,1.832 3.649,2.783 5.835,2.783 1.657,0 3.324,-0.546 4.712,-1.669 3.221,-2.605 3.719,-7.328 1.114,-10.548 -6.713,-8.299 -14.324,-15.91 -22.621,-22.623 -3.219,-2.605 -7.942,-2.107 -10.548,1.113 -2.605,3.22 -2.106,7.943 1.114,10.548 z"
           id="path27784" /><path
           d="M 255.5,136 C 189.607,136 136,189.608 136,255.5 136,321.392 189.607,375 255.5,375 321.393,375 375,321.393 375,255.5 375,189.607 321.393,136 255.5,136 Z m 0,224 C 197.878,360 151,313.122 151,255.5 151,197.878 197.878,151 255.5,151 313.122,151 360,197.879 360,255.5 360,313.121 313.122,360 255.5,360 Z"
           id="path27786" /></g></g></g></svg>
