<?xml version="1.0" encoding="UTF-8" standalone="no"?>
<!-- Created with Inkscape (http://www.inkscape.org/) -->

<svg
   width="60mm"
   height="10mm"
   viewBox="0 0 60 10"
   version="1.1"
   id="svg8720"
   inkscape:version="1.2.2 (b0a8486541, 2022-12-01)"
   sodipodi:docname="1.svg"
   xmlns:inkscape="http://www.inkscape.org/namespaces/inkscape"
   xmlns:sodipodi="http://sodipodi.sourceforge.net/DTD/sodipodi-0.dtd"
   xmlns="http://www.w3.org/2000/svg"
   xmlns:svg="http://www.w3.org/2000/svg">
  <sodipodi:namedview
     id="namedview8722"
     pagecolor="#ffffff"
     bordercolor="#000000"
     borderopacity="0.25"
     inkscape:showpageshadow="2"
     inkscape:pageopacity="0.0"
     inkscape:pagecheckerboard="0"
     inkscape:deskcolor="#d1d1d1"
     inkscape:document-units="mm"
     showgrid="false"
     inkscape:zoom="4.394379"
     inkscape:cx="110.02692"
     inkscape:cy="27.535176"
     inkscape:window-width="1920"
     inkscape:window-height="961"
     inkscape:window-x="0"
     inkscape:window-y="0"
     inkscape:window-maximized="1"
     inkscape:current-layer="layer1"
     inkscape:lockguides="true" />
  <defs
     id="defs8717">
    <rect
       x="49.622643"
       y="367.16537"
       width="209.94017"
       height="58.230724"
       id="rect3879" />
  </defs>
  <g
     inkscape:label="Слой 1"
     inkscape:groupmode="layer"
     id="layer1">
    <text
       xml:space="preserve"
       style="font-size:10.1733px;font-family:'Fira Mono';-inkscape-font-specification:'Fira Mono';fill:#151515;fill-opacity:0.971764;stroke:#000000;stroke-width:0.381496;stroke-opacity:0.879079"
       x="1.2035292"
       y="8.8105011"
       id="text4037"
       transform="scale(1.0332555,0.96781484)"><tspan
         id="tspan4035"
         style="font-style:normal;font-variant:normal;font-weight:normal;font-stretch:normal;font-family:Montserrat;-inkscape-font-specification:Montserrat;fill:#151515;fill-opacity:0.971764;stroke:#000000;stroke-width:0.381496;stroke-opacity:0.879079"
         x="1.2035292"
         y="8.8105011"
         sodipodi:role="line">libD   main</tspan></text>
    <g
       id="g3592"
       transform="matrix(1.2254714,0,0,1.2254714,-1.0013631,-1.4414225)">
      <g
         id="g1777">
        <path
           d="M 501,300.8 V 209.1 H 455.7 C 450.4,186.7 441.4,165.8 429.3,147 L 462.2,114.3 397.3,49.7 363.9,83 C 345.1,71.5 324.3,63.1 302.1,58.2 V 11 H 210 v 48.3 c -22,5.4 -42.6,14.4 -61.1,26.4 l -34.2,-34 -64.9,64.6 35.3,35.2 c -2.8,4.6 -5.3,9.2 -7.7,14 -7.5,14.3 -13.2,30 -17.1,45.7 H 11 v 91.7 h 50.3 c 1.5,6 3.3,11.9 5.3,17.8 0.1,0.4 0.3,0.8 0.4,1.2 0,0.1 0.1,0.2 0.1,0.4 4.9,14.2 11.3,27.7 19.1,40.2 l -35.5,35.3 64.9,64.6 35.1,-34.9 c 18.3,11.5 38.6,20.2 60.2,25.4 V 501 H 302 v -47.1 c 22.7,-5 44,-13.7 63.1,-25.6 l 32.2,32 64.9,-64.6 -32.1,-31.9 c 12,-19.1 20.9,-40.3 26,-62.9 H 501 Z m -94.8,64 29.9,29.8 -36.6,36.5 -29.5,-29.4 c -24.7,18.9 -54.4,31.7 -86.7,36 v 42.4 H 232 v -42.7 c -31.5,-4.6 -60.4,-17.2 -84.6,-35.7 l -31.6,31.5 -36.6,-36.5 32.4,-31.3 C 93.7,341.4 81.6,313 77.2,282 H 31.9 v -51.1 h 44 l 1.5,-3.6 C 82.1,197.6 93.9,170.2 111,147 l -32,-31.9 36.6,-36.5 31,31.9 c 24,-18.5 52.8,-31.2 84.1,-36 V 31.8 H 282 v 42.3 c 32,4.1 61.3,16.4 86,34.8 l 30.3,-30.1 35.6,36.5 -29.6,29.5 c 18.2,23.8 30.7,52.2 35.5,83.1 h 45.4 V 279 h -44.7 c -3.9,31.8 -16.1,61.1 -34.3,85.8 z"
           id="path119439"
           style="fill:#000000;fill-opacity:1;stroke:#060000;stroke-opacity:1"
           transform="matrix(0.01441832,0,0,0.01361481,19.237367,2.0152095)" />
      </g>
      <g
         id="g3582">
        <g
           id="g119445"
           transform="matrix(0.01441832,0,0,0.01361481,19.237367,2.0152095)"
           style="fill:#000000;fill-opacity:1;stroke:#060000;stroke-opacity:1">
          <line
             fill="none"
             y1="501"
             x1="303.10001"
             y2="501"
             x2="302.10001"
             id="line119437"
             style="fill:#000000;fill-opacity:1;stroke:#060000;stroke-opacity:1" />
          <g
             id="g119443"
             style="fill:#000000;fill-opacity:1;stroke:#060000;stroke-opacity:1">
            <path
               d="m 257,143.4 c -61.8,0 -113.1,50 -113.1,112.6 0,62.6 51.4,112.6 113.1,112.6 61.7,0 113.1,-51.1 113.1,-112.6 0,-61.5 -51.3,-112.6 -113.1,-112.6 z m 0,204.3 c -51.3,0 -92.1,-40.7 -92.1,-91.7 0,-51.1 41.9,-91.7 92.1,-91.7 50.2,0 92.1,40.7 92.1,91.7 0.1,51.1 -41.8,91.7 -92.1,91.7 z"
               id="path119441"
               style="fill:#000000;fill-opacity:1;stroke:#060000;stroke-opacity:1" />
          </g>
        </g>
        <path
           style="fill:#000000;fill-opacity:1;stroke:#000000;stroke-width:0.0804558;stroke-opacity:1"
           d="m 85.403859,31.145515 v -1.077044 l -0.543077,-0.100556 c -1.181735,-0.218811 -2.618258,-0.790337 -3.625781,-1.442533 l -0.508118,-0.328917 -0.853587,0.800008 -0.853588,0.800009 -0.911171,-0.850707 c -0.501145,-0.467889 -0.911172,-0.876503 -0.911172,-0.908032 0,-0.03153 0.190077,-0.231831 0.422393,-0.445118 0.232316,-0.213287 0.611723,-0.563534 0.843127,-0.778327 L 78.88362,26.423767 78.636823,26.084815 C 77.94545,25.135284 77.300361,23.713861 77.095482,22.688543 l -0.112537,-0.563191 -1.220311,-0.02221 -1.220311,-0.02221 v -1.24497 -1.244969 h 1.161861 c 0.639023,0 1.18261,-0.03357 1.20797,-0.07461 0.02536,-0.04103 0.132409,-0.414807 0.237885,-0.830608 0.306716,-1.209109 0.720008,-2.084822 1.597583,-3.385073 0.08794,-0.130293 0.0025,-0.237048 -0.759431,-0.948816 l -0.858518,-0.802005 0.697607,-0.670473 c 0.383683,-0.36876 0.807723,-0.762325 0.942312,-0.874589 l 0.244705,-0.204117 0.848302,0.792217 0.848302,0.792217 0.355197,-0.240603 c 0.989777,-0.670456 2.55853,-1.313928 3.72914,-1.529622 l 0.528165,-0.09732 V 10.405122 9.2926479 h 1.327521 1.327521 v 1.0846211 c 0,1.060491 0.004,1.085421 0.181026,1.120609 1.972452,0.392126 3.151727,0.841016 4.408719,1.678175 l 0.204903,0.136465 0.827657,-0.775788 0.827658,-0.775789 0.898379,0.902928 0.898381,0.902929 -0.795684,0.743841 -0.795684,0.743841 0.361314,0.49081 c 0.695388,0.944618 1.399625,2.552482 1.561579,3.565284 l 0.05109,0.319508 h 1.236782 1.236782 v 1.247065 1.247066 H 97.88312 c -1.27068,0 -1.295901,0.0078 -1.295901,0.399859 0,0.288489 -0.419599,1.584558 -0.721721,2.229268 -0.16981,0.362365 -0.490881,0.929969 -0.713493,1.261343 l -0.404747,0.602497 0.810977,0.748328 0.810978,0.748328 -0.916809,0.864789 c -0.504245,0.475634 -0.942592,0.865815 -0.974105,0.867068 -0.03151,0.0013 -0.402147,-0.327399 -0.82363,-0.730339 l -0.766332,-0.732619 -0.423436,0.280012 c -1.069338,0.707139 -2.581695,1.312345 -3.784462,1.514445 l -0.621538,0.104437 v 1.070464 1.070465 H 86.73138 85.403859 Z m 2.937956,-4.716113 c 2.933448,-0.75025 4.937636,-3.525044 4.551468,-6.301495 -0.332815,-2.392848 -2.031116,-4.276614 -4.488488,-4.978661 -0.82839,-0.236663 -2.432982,-0.252004 -3.282531,-0.03138 -4.562444,1.184831 -6.157877,6.466095 -2.928725,9.694783 0.819714,0.819597 2.090208,1.496847 3.170092,1.68985 0.265504,0.04745 0.573248,0.102228 0.683875,0.121722 0.398905,0.07029 1.684593,-0.03888 2.294309,-0.194817 z"
           id="path3575"
           transform="scale(0.26458333)" />
      </g>
    </g>
  </g>
</svg>
