<?xml version="1.0" encoding="UTF-8" standalone="no"?>
<!-- Created with Inkscape (http://www.inkscape.org/) -->

<svg
   width="66mm"
   height="12mm"
   viewBox="0 0 66 12"
   version="1.1"
   id="svg8720"
   inkscape:version="1.2.2 (b0a8486541, 2022-12-01)"
   sodipodi:docname="2.svg"
   xml:space="preserve"
   inkscape:export-filename="2.png"
   inkscape:export-xdpi="96"
   inkscape:export-ydpi="96"
   xmlns:inkscape="http://www.inkscape.org/namespaces/inkscape"
   xmlns:sodipodi="http://sodipodi.sourceforge.net/DTD/sodipodi-0.dtd"
   xmlns="http://www.w3.org/2000/svg"
   xmlns:svg="http://www.w3.org/2000/svg"><sodipodi:namedview
     id="namedview8722"
     pagecolor="#ffffff"
     bordercolor="#000000"
     borderopacity="0.25"
     inkscape:showpageshadow="2"
     inkscape:pageopacity="0.0"
     inkscape:pagecheckerboard="0"
     inkscape:deskcolor="#d1d1d1"
     inkscape:document-units="mm"
     showgrid="false"
     inkscape:zoom="6.2145904"
     inkscape:cx="150.53285"
     inkscape:cy="18.665752"
     inkscape:window-width="1920"
     inkscape:window-height="961"
     inkscape:window-x="0"
     inkscape:window-y="0"
     inkscape:window-maximized="1"
     inkscape:current-layer="layer1"
     inkscape:lockguides="true" /><defs
     id="defs8717"><rect
       x="49.622643"
       y="367.16537"
       width="209.94017"
       height="58.230724"
       id="rect3879" /></defs><g
     inkscape:label="Слой 1"
     inkscape:groupmode="layer"
     id="layer1"><text
       xml:space="preserve"
       style="font-size:8.46667px;line-height:0;font-family:'Fira Mono';-inkscape-font-specification:'Fira Mono';letter-spacing:2.11667px;fill:#151515;fill-opacity:0;stroke:#000000;stroke-width:0.375703;stroke-dasharray:none;stroke-opacity:1"
       x="1.1906008"
       y="8.8858137"
       id="text4037"
       transform="scale(1.0036595,0.99635385)"><tspan
         id="tspan4035"
         style="font-style:normal;font-variant:normal;font-weight:bold;font-stretch:normal;font-size:8.46667px;font-family:'PT Mono';-inkscape-font-specification:'PT Mono Bold';fill:#000000;fill-opacity:1;stroke:#000000;stroke-width:0.375703;stroke-dasharray:none;stroke-opacity:1"
         x="1.1906008"
         y="8.8858137"
         sodipodi:role="line"
         dx="0"
         dy="0.0099999998">lib<tspan
   id="tspan893"
   style="letter-spacing:11.1125px">d</tspan>main</tspan></text><path
       d="m 32.805173,3.2455407 c -0.290956,0.056794 -0.566502,0.1463526 -0.826642,0.2681313 -0.05512,0.026216 -0.113774,0.054613 -0.130366,0.063895 l -0.02963,0.016383 0.0018,0.034947 c 5.14e-4,0.019107 0.01303,0.1354292 0.02786,0.2588471 0.01482,0.1228714 0.02845,0.241372 0.03022,0.26267 l 0.0041,0.038773 -0.0794,0.054613 c -0.165329,0.1135864 -0.360875,0.2795994 -0.476428,0.4046541 -0.0225,0.024574 -0.04386,0.044779 -0.04741,0.044779 -0.0035,0 -0.145774,-0.02567 -0.316434,-0.057342 -0.170662,-0.031126 -0.312879,-0.0557 -0.315842,-0.053519 -0.01009,0.00545 -0.100144,0.1354316 -0.149328,0.2140684 -0.08651,0.1387079 -0.17955,0.3194641 -0.240584,0.4669096 -0.03022,0.074269 -0.0877,0.2386423 -0.09244,0.2643088 l -0.0035,0.020751 0.249473,0.1851258 c 0.137476,0.1015735 0.249472,0.1867634 0.249472,0.1894939 0,0.00272 -0.0066,0.047511 -0.01482,0.098844 -0.0077,0.051879 -0.01777,0.1256017 -0.02132,0.1649201 -0.0077,0.074267 -0.01065,0.3003498 -0.0053,0.4172135 l 0.003,0.067715 -0.266657,0.1643744 -0.266658,0.1643743 0.0018,0.021841 c 0.0022,0.032224 0.03969,0.1823965 0.06695,0.2714089 0.04858,0.1583663 0.109628,0.3107267 0.187254,0.4658169 0.04148,0.08246 0.122664,0.2244441 0.135107,0.2370039 0.0066,0.00603 0.02133,0.00603 0.096,-0.00162 0.335396,-0.034403 0.52087,-0.052423 0.535092,-0.052423 0.01422,0 0.02547,0.010914 0.08474,0.083005 0.126811,0.1545451 0.286805,0.3140035 0.423689,0.4221305 0.02963,0.023482 0.05452,0.04587 0.05452,0.048606 0,0.00332 -0.02786,0.1348826 -0.06223,0.2921578 -0.03378,0.1578217 -0.05984,0.288884 -0.05806,0.2916134 0.0059,0.00874 0.149328,0.093382 0.238213,0.1403474 0.11733,0.06225 0.314657,0.1496285 0.440282,0.195501 0.107257,0.039859 0.31051,0.1026637 0.348435,0.1081242 l 0.02133,0.00328 0.200289,-0.2299052 c 0.110809,-0.1266919 0.20325,-0.2299031 0.206215,-0.2299031 0.003,0 0.05156,0.00603 0.107254,0.01365 0.0563,0.00713 0.136884,0.016386 0.178959,0.020205 0.08651,0.00764 0.385762,0.00927 0.469317,0.00276 l 0.05452,-0.00435 0.17777,0.2457412 c 0.09778,0.1348846 0.180143,0.2468341 0.183697,0.2484732 0.0071,0.00431 0.18666,-0.030034 0.283843,-0.054605 0.23466,-0.058431 0.482945,-0.1490844 0.693904,-0.253387 0.11792,-0.05789 0.109033,-0.050248 0.104293,-0.092291 -0.0022,-0.019669 -0.01538,-0.1343386 -0.02963,-0.2544775 -0.01421,-0.1201408 -0.02785,-0.2370047 -0.03022,-0.2599398 l -0.0035,-0.04151 0.06696,-0.046423 C 35.456537,8.4596859 35.619494,8.320431 35.769415,8.161519 l 0.02786,-0.030038 0.30399,0.055698 c 0.167106,0.030583 0.310508,0.056249 0.318213,0.057338 0.01243,0.00108 0.02014,-0.00602 0.0474,-0.042594 0.107256,-0.1425311 0.250064,-0.3937331 0.330656,-0.5815899 0.04917,-0.1146798 0.111404,-0.2839667 0.117921,-0.3211023 l 0.0034,-0.020752 -0.236451,-0.1751995 C 36.552513,7.0070731 36.439924,6.9235211 36.432222,6.9175136 l -0.01363,-0.010382 0.01541,-0.09775 c 0.0083,-0.054065 0.01837,-0.1305163 0.02192,-0.1692896 0.0077,-0.074267 0.01066,-0.3014424 0.0053,-0.4172136 l -0.003,-0.067715 0.266659,-0.1643751 0.266658,-0.1643724 -0.0018,-0.021841 c -0.0022,-0.032218 -0.03964,-0.1823955 -0.06691,-0.2714094 -0.04918,-0.1605511 -0.110221,-0.3118188 -0.190218,-0.4712784 -0.04266,-0.085191 -0.119108,-0.2184373 -0.132143,-0.2315429 -0.0066,-0.00603 -0.05571,-0.00215 -0.315249,0.023484 -0.168884,0.016929 -0.31288,0.030581 -0.319989,0.030581 -0.0095,0 -0.02846,-0.019109 -0.07349,-0.074267 -0.125612,-0.1545454 -0.302793,-0.3314794 -0.436713,-0.436329 -0.02666,-0.020752 -0.04858,-0.040962 -0.04858,-0.043694 0,-0.00335 0.02786,-0.1348844 0.06219,-0.2921596 0.03378,-0.1572751 0.05985,-0.2883381 0.05807,-0.2910676 C 35.521307,3.738702 35.38213,3.65624 35.299759,3.6120068 35.156983,3.5355548 34.947803,3.444357 34.78781,3.3881098 34.70663,3.3602638 34.528855,3.3072868 34.501006,3.3029198 l -0.0225,-0.00328 -0.200881,0.2299054 c -0.112591,0.129424 -0.204436,0.2299039 -0.209772,0.2299039 -0.0053,0 -0.0332,-0.00383 -0.06281,-0.00819 -0.174216,-0.026759 -0.370952,-0.03823 -0.554055,-0.032766 -0.07645,0.00216 -0.151106,0.00431 -0.165329,0.00495 l -0.0261,4.721e-4 -0.178292,-0.2457332 c -0.09837,-0.1354356 -0.182512,-0.2462917 -0.187253,-0.2468389 -0.0048,-4.705e-4 -0.04504,0.00607 -0.08889,0.014194 z m 0.9333,1.5541795 c 0.681458,0.073723 1.250921,0.4963982 1.470766,1.0921868 0.06222,0.1687414 0.09067,0.3331164 0.09067,0.5215177 0,0.2615789 -0.05629,0.4849297 -0.180734,0.718111 -0.07882,0.148537 -0.184881,0.2877918 -0.308136,0.4062947 -0.285031,0.2735905 -0.660128,0.4445172 -1.075523,0.4892973 -0.096,0.010382 -0.295098,0.010382 -0.391096,0 C 32.73407,7.9615967 32.216161,7.6219269 31.951283,7.1151539 31.835137,6.8923476 31.780027,6.6668116 31.780027,6.4134247 c 0,-0.2643097 0.05925,-0.4974915 0.18429,-0.727941 0.266658,-0.4893004 0.77864,-0.8191393 1.374177,-0.8857635 0.08948,-0.00983 0.306359,-0.00983 0.399988,0 z"
       id="path27005"
       style="fill:#000000;stroke:none;stroke-width:0.000568855" /></g></svg>
