<?xml version="1.0" encoding="UTF-8" standalone="no"?>
<!-- Created with Inkscape (http://www.inkscape.org/) -->

<svg
   width="61mm"
   height="13mm"
   viewBox="0 0 61 13"
   version="1.1"
   id="svg8720"
   inkscape:version="1.2.2 (b0a8486541, 2022-12-01)"
   sodipodi:docname="1.svg"
   xml:space="preserve"
   xmlns:inkscape="http://www.inkscape.org/namespaces/inkscape"
   xmlns:sodipodi="http://sodipodi.sourceforge.net/DTD/sodipodi-0.dtd"
   xmlns="http://www.w3.org/2000/svg"
   xmlns:svg="http://www.w3.org/2000/svg"><sodipodi:namedview
     id="namedview8722"
     pagecolor="#ffffff"
     bordercolor="#000000"
     borderopacity="0.25"
     inkscape:showpageshadow="2"
     inkscape:pageopacity="0.0"
     inkscape:pagecheckerboard="0"
     inkscape:deskcolor="#d1d1d1"
     inkscape:document-units="mm"
     showgrid="false"
     inkscape:zoom="3.1072952"
     inkscape:cx="124.70653"
     inkscape:cy="22.849454"
     inkscape:window-width="1920"
     inkscape:window-height="961"
     inkscape:window-x="0"
     inkscape:window-y="0"
     inkscape:window-maximized="1"
     inkscape:current-layer="layer1"
     inkscape:lockguides="true" /><defs
     id="defs8717"><rect
       x="49.622643"
       y="367.16537"
       width="209.94017"
       height="58.230724"
       id="rect3879" /></defs><g
     inkscape:label="Слой 1"
     inkscape:groupmode="layer"
     id="layer1"><text
       xml:space="preserve"
       style="font-size:11.63px;font-family:'Fira Mono';-inkscape-font-specification:'Fira Mono';fill:#151515;fill-opacity:0;stroke:#000000;stroke-width:0.436101;stroke-dasharray:none;stroke-opacity:1"
       x="2.6468089"
       y="9.9845629"
       id="text4037"
       transform="scale(1.0571426,0.94594618)"><tspan
         id="tspan4035"
         style="font-style:normal;font-variant:normal;font-weight:normal;font-stretch:normal;font-family:'Times New Roman';-inkscape-font-specification:'Times New Roman, ';fill:#000000;fill-opacity:1;stroke:#000000;stroke-width:0.436101;stroke-dasharray:none;stroke-opacity:1"
         x="2.6468089"
         y="9.9845629"
         sodipodi:role="line">libD   main</tspan></text><g
       id="g3592"
       transform="matrix(1.3978932,0,0,1.3978932,20.073318,-26.169054)"><g
         id="g1777"><path
           d="M 501,300.8 V 209.1 H 455.7 C 450.4,186.7 441.4,165.8 429.3,147 L 462.2,114.3 397.3,49.7 363.9,83 C 345.1,71.5 324.3,63.1 302.1,58.2 V 11 H 210 v 48.3 c -22,5.4 -42.6,14.4 -61.1,26.4 l -34.2,-34 -64.9,64.6 35.3,35.2 c -2.8,4.6 -5.3,9.2 -7.7,14 -7.5,14.3 -13.2,30 -17.1,45.7 H 11 v 91.7 h 50.3 c 1.5,6 3.3,11.9 5.3,17.8 0.1,0.4 0.3,0.8 0.4,1.2 0,0.1 0.1,0.2 0.1,0.4 4.9,14.2 11.3,27.7 19.1,40.2 l -35.5,35.3 64.9,64.6 35.1,-34.9 c 18.3,11.5 38.6,20.2 60.2,25.4 V 501 H 302 v -47.1 c 22.7,-5 44,-13.7 63.1,-25.6 l 32.2,32 64.9,-64.6 -32.1,-31.9 c 12,-19.1 20.9,-40.3 26,-62.9 H 501 Z m -94.8,64 29.9,29.8 -36.6,36.5 -29.5,-29.4 c -24.7,18.9 -54.4,31.7 -86.7,36 v 42.4 H 232 v -42.7 c -31.5,-4.6 -60.4,-17.2 -84.6,-35.7 l -31.6,31.5 -36.6,-36.5 32.4,-31.3 C 93.7,341.4 81.6,313 77.2,282 H 31.9 v -51.1 h 44 l 1.5,-3.6 C 82.1,197.6 93.9,170.2 111,147 l -32,-31.9 36.6,-36.5 31,31.9 c 24,-18.5 52.8,-31.2 84.1,-36 V 31.8 H 282 v 42.3 c 32,4.1 61.3,16.4 86,34.8 l 30.3,-30.1 35.6,36.5 -29.6,29.5 c 18.2,23.8 30.7,52.2 35.5,83.1 h 45.4 V 279 h -44.7 c -3.9,31.8 -16.1,61.1 -34.3,85.8 z"
           id="path119439"
           style="fill:#000000;fill-opacity:1;stroke:#060000;stroke-opacity:1"
           transform="matrix(0.01441832,0,0,0.01361481,19.237367,2.0152095)" /></g><g
         id="g3582"><g
           id="g119445"
           transform="matrix(0.01441832,0,0,0.01361481,19.237367,2.0152095)"
           style="fill:#000000;fill-opacity:1;stroke:#060000;stroke-opacity:1"><line
             fill="none"
             y1="501"
             x1="303.10001"
             y2="501"
             x2="302.10001"
             id="line119437"
             style="fill:#000000;fill-opacity:1;stroke:#060000;stroke-opacity:1" /><g
             id="g119443"
             style="fill:#000000;fill-opacity:1;stroke:#060000;stroke-opacity:1"><path
               d="m 257,143.4 c -61.8,0 -113.1,50 -113.1,112.6 0,62.6 51.4,112.6 113.1,112.6 61.7,0 113.1,-51.1 113.1,-112.6 0,-61.5 -51.3,-112.6 -113.1,-112.6 z m 0,204.3 c -51.3,0 -92.1,-40.7 -92.1,-91.7 0,-51.1 41.9,-91.7 92.1,-91.7 50.2,0 92.1,40.7 92.1,91.7 0.1,51.1 -41.8,91.7 -92.1,91.7 z"
               id="path119441"
               style="fill:#000000;fill-opacity:1;stroke:#060000;stroke-opacity:1" /></g></g><path
           style="fill:#000000;fill-opacity:1;stroke:#000000;stroke-width:0.0804558;stroke-opacity:1"
           d="m 85.403859,31.145515 v -1.077044 l -0.543077,-0.100556 c -1.181735,-0.218811 -2.618258,-0.790337 -3.625781,-1.442533 l -0.508118,-0.328917 -0.853587,0.800008 -0.853588,0.800009 -0.911171,-0.850707 c -0.501145,-0.467889 -0.911172,-0.876503 -0.911172,-0.908032 0,-0.03153 0.190077,-0.231831 0.422393,-0.445118 0.232316,-0.213287 0.611723,-0.563534 0.843127,-0.778327 L 78.88362,26.423767 78.636823,26.084815 C 77.94545,25.135284 77.300361,23.713861 77.095482,22.688543 l -0.112537,-0.563191 -1.220311,-0.02221 -1.220311,-0.02221 v -1.24497 -1.244969 h 1.161861 c 0.639023,0 1.18261,-0.03357 1.20797,-0.07461 0.02536,-0.04103 0.132409,-0.414807 0.237885,-0.830608 0.306716,-1.209109 0.720008,-2.084822 1.597583,-3.385073 0.08794,-0.130293 0.0025,-0.237048 -0.759431,-0.948816 l -0.858518,-0.802005 0.697607,-0.670473 c 0.383683,-0.36876 0.807723,-0.762325 0.942312,-0.874589 l 0.244705,-0.204117 0.848302,0.792217 0.848302,0.792217 0.355197,-0.240603 c 0.989777,-0.670456 2.55853,-1.313928 3.72914,-1.529622 l 0.528165,-0.09732 V 10.405122 9.2926479 h 1.327521 1.327521 v 1.0846211 c 0,1.060491 0.004,1.085421 0.181026,1.120609 1.972452,0.392126 3.151727,0.841016 4.408719,1.678175 l 0.204903,0.136465 0.827657,-0.775788 0.827658,-0.775789 0.898379,0.902928 0.898381,0.902929 -0.795684,0.743841 -0.795684,0.743841 0.361314,0.49081 c 0.695388,0.944618 1.399625,2.552482 1.561579,3.565284 l 0.05109,0.319508 h 1.236782 1.236782 v 1.247065 1.247066 H 97.88312 c -1.27068,0 -1.295901,0.0078 -1.295901,0.399859 0,0.288489 -0.419599,1.584558 -0.721721,2.229268 -0.16981,0.362365 -0.490881,0.929969 -0.713493,1.261343 l -0.404747,0.602497 0.810977,0.748328 0.810978,0.748328 -0.916809,0.864789 c -0.504245,0.475634 -0.942592,0.865815 -0.974105,0.867068 -0.03151,0.0013 -0.402147,-0.327399 -0.82363,-0.730339 l -0.766332,-0.732619 -0.423436,0.280012 c -1.069338,0.707139 -2.581695,1.312345 -3.784462,1.514445 l -0.621538,0.104437 v 1.070464 1.070465 H 86.73138 85.403859 Z m 2.937956,-4.716113 c 2.933448,-0.75025 4.937636,-3.525044 4.551468,-6.301495 -0.332815,-2.392848 -2.031116,-4.276614 -4.488488,-4.978661 -0.82839,-0.236663 -2.432982,-0.252004 -3.282531,-0.03138 -4.562444,1.184831 -6.157877,6.466095 -2.928725,9.694783 0.819714,0.819597 2.090208,1.496847 3.170092,1.68985 0.265504,0.04745 0.573248,0.102228 0.683875,0.121722 0.398905,0.07029 1.684593,-0.03888 2.294309,-0.194817 z"
           id="path3575"
           transform="scale(0.26458333)" /></g></g><path
       d="m 28.166619,2.1903003 c -0.368194,0.069785 -0.716892,0.1798411 -1.046092,0.3294857 -0.06974,0.032217 -0.143979,0.067105 -0.164975,0.078517 l -0.03749,0.020135 0.0022,0.042949 c 6.47e-4,0.023485 0.0165,0.1664191 0.03525,0.3180771 0.01876,0.1509868 0.036,0.2966034 0.03825,0.3227761 l 0.0053,0.04764 -0.100483,0.067105 c -0.209218,0.1395773 -0.456681,0.3435777 -0.602908,0.4972481 -0.02849,0.030197 -0.0555,0.055022 -0.05999,0.055022 -0.0045,0 -0.184472,-0.031547 -0.400437,-0.070466 -0.215968,-0.038248 -0.395942,-0.068445 -0.399691,-0.065764 -0.01276,0.0067 -0.126731,0.1664212 -0.188971,0.2630522 -0.109481,0.1704471 -0.227216,0.3925643 -0.304454,0.5737498 -0.03824,0.09126 -0.110978,0.2932487 -0.116982,0.3247886 l -0.0045,0.025495 0.315701,0.2274864 c 0.173973,0.1248161 0.315703,0.2294999 0.315703,0.2328546 0,0.0033 -0.0083,0.058383 -0.01876,0.1214615 -0.0098,0.063754 -0.0225,0.1543426 -0.02699,0.202658 -0.0098,0.09126 -0.0135,0.3690773 -0.0068,0.5126814 l 0.0037,0.083208 -0.337448,0.201988 -0.337449,0.2019869 0.0022,0.026836 c 0.003,0.039599 0.05024,0.2241328 0.08473,0.3335135 0.06149,0.1946043 0.138731,0.3818276 0.236965,0.5724065 0.05249,0.1013312 0.155229,0.2758018 0.170974,0.2912361 0.0083,0.00739 0.02699,0.00739 0.121483,-0.00199 0.424435,-0.042283 0.659148,-0.064426 0.677145,-0.064426 0.01799,0 0.03225,0.013413 0.107235,0.1019988 0.160475,0.1899085 0.362942,0.3858548 0.536166,0.5187248 0.0375,0.02885 0.069,0.05636 0.069,0.05973 0,0.0041 -0.03524,0.165747 -0.07875,0.359011 -0.04274,0.193934 -0.07574,0.354986 -0.07348,0.358341 0.0075,0.01074 0.188971,0.114751 0.301453,0.172462 0.148479,0.0765 0.398191,0.183867 0.557165,0.240235 0.135731,0.04898 0.392941,0.126158 0.440935,0.132867 l 0.02699,0.0041 0.253461,-0.282514 c 0.140227,-0.155683 0.257209,-0.282512 0.26096,-0.282512 0.0037,0 0.06525,0.0074 0.135728,0.01678 0.07125,0.0088 0.173224,0.02013 0.226467,0.02482 0.10948,0.0094 0.488175,0.01139 0.59391,0.0033 l 0.069,-0.0053 0.224965,0.301972 c 0.123732,0.16575 0.227965,0.303315 0.232465,0.30533 0.009,0.0053 0.236213,-0.03691 0.359195,-0.06711 0.296955,-0.0718 0.611156,-0.183198 0.878116,-0.311368 0.149227,-0.07114 0.13798,-0.06175 0.131981,-0.11341 -0.003,-0.02416 -0.01948,-0.165077 -0.0375,-0.312706 -0.01799,-0.147634 -0.03524,-0.29124 -0.03824,-0.319422 l -0.0045,-0.051 0.08473,-0.05704 c 0.242213,-0.161723 0.448431,-0.332842 0.638151,-0.5281172 l 0.03526,-0.036908 0.384691,0.068449 c 0.211467,0.037576 0.392939,0.069117 0.402689,0.070453 0.01575,0.00135 0.0255,-0.00739 0.05999,-0.052341 0.135728,-0.1751453 0.316449,-0.4838284 0.418435,-0.7146717 0.06223,-0.1409207 0.140979,-0.3489442 0.149228,-0.3945772 l 0.0045,-0.025495 -0.299205,-0.2153089 C 32.908793,6.8125788 32.766315,6.7099085 32.756567,6.7025259 l -0.01724,-0.012763 0.01949,-0.1201171 c 0.01049,-0.066434 0.02325,-0.1603818 0.02774,-0.2080272 0.0098,-0.09126 0.0135,-0.3704205 0.0068,-0.5126825 l -0.0037,-0.083208 0.33745,-0.2019879 0.33745,-0.2019839 -0.0022,-0.026836 C 33.459311,5.2953325 33.412091,5.11079 33.377597,5.0014072 33.315366,4.8041183 33.238118,4.6182369 33.136882,4.4222893 33.082895,4.3176046 32.986155,4.1538679 32.969657,4.1377635 c -0.0083,-0.00743 -0.07049,-0.00258 -0.398939,0.028856 -0.213717,0.020804 -0.39594,0.037578 -0.404937,0.037578 -0.012,0 -0.036,-0.023485 -0.09298,-0.09126 -0.15898,-0.1899076 -0.383195,-0.4073289 -0.55267,-0.5361699 -0.03374,-0.025495 -0.06148,-0.050331 -0.06148,-0.053681 0,-0.00402 0.03525,-0.165749 0.07873,-0.359013 0.04274,-0.1932633 0.07573,-0.3543163 0.07349,-0.357671 C 31.604116,2.7962986 31.427943,2.6950078 31.323706,2.640653 31.142869,2.5467024 30.87816,2.4346402 30.67569,2.3655221 30.572961,2.3313049 30.347989,2.2662107 30.312747,2.2608383 l -0.02849,-0.00402 -0.254213,0.2825134 c -0.142478,0.1590396 -0.258709,0.2825114 -0.265461,0.2825114 -0.0068,0 -0.04199,-0.00474 -0.07949,-0.010103 -0.220466,-0.032887 -0.46943,-0.04697 -0.701142,-0.040259 -0.09674,0.00258 -0.191223,0.00536 -0.20922,0.00608 l -0.033,5.793e-4 -0.225715,-0.3019736 C 28.391535,2.3097395 28.285051,2.1735179 28.279053,2.1728447 c -0.006,-5.783e-4 -0.05699,0.00743 -0.112488,0.017443 z m 1.181072,1.9098122 c 0.862368,0.09059 1.583009,0.6099856 1.861216,1.3421048 0.07875,0.207353 0.114735,0.409341 0.114735,0.6408533 0,0.3214339 -0.07124,0.5958925 -0.228714,0.8824318 -0.09973,0.1825257 -0.233964,0.3536449 -0.389941,0.4992642 -0.360696,0.3361942 -0.835373,0.5462338 -1.361044,0.6012603 -0.121482,0.012761 -0.373441,0.012761 -0.494924,0 C 28.076636,7.9855011 27.421237,7.5681067 27.086038,6.9453721 26.939059,6.6715825 26.869319,6.3944383 26.869319,6.0830706 c 0,-0.3247896 0.07498,-0.6113289 0.233215,-0.8945115 0.337448,-0.6012637 0.98535,-1.0065778 1.738986,-1.0884466 0.113237,-0.012083 0.38769,-0.012083 0.506174,0 z"
       id="path27005"
       style="fill:#000000;stroke:none;stroke-width:0.000709374" /><path
       d="m 43.188683,-19.583271 c 0,0.0025 -0.01821,0.109265 -0.04082,0.236742 -0.02259,0.128105 -0.05966,0.339729 -0.08227,0.470973 -0.02324,0.131245 -0.0427,0.239255 -0.04333,0.240511 -7.19e-4,6.48e-4 -0.0383,0.0088 -0.08352,0.01696 -0.146316,0.02826 -0.293261,0.06782 -0.433924,0.117429 -0.06908,0.02386 -0.07159,0.02449 -0.08226,0.01319 -0.0056,-0.0063 -0.14129,-0.168294 -0.301421,-0.359823 -0.160131,-0.191529 -0.295145,-0.353544 -0.301424,-0.359824 -0.01004,-0.01067 -0.02385,-0.0031 -0.298912,0.155735 -0.158246,0.09168 -0.288864,0.168923 -0.29012,0.172062 -0.0011,0.0031 0.07222,0.208485 0.162643,0.456531 l 0.164528,0.45025 -0.02511,0.02261 c -0.181484,0.163899 -0.209112,0.190901 -0.385571,0.386198 l -0.0226,0.02449 -0.442087,-0.161387 c -0.243023,-0.08917 -0.448369,-0.162014 -0.455903,-0.162643 -0.01194,-0.0013 -0.03642,0.03831 -0.180855,0.28698 -0.158875,0.275049 -0.166409,0.288864 -0.155734,0.298911 0.0063,0.0063 0.16955,0.143177 0.362962,0.304563 0.193415,0.161387 0.355428,0.297028 0.359825,0.300796 0.0063,0.0063 0.0032,0.02198 -0.01695,0.07975 -0.05338,0.156363 -0.08854,0.286352 -0.116176,0.43204 -0.0088,0.04647 -0.01695,0.08478 -0.01759,0.0854 -0.0011,6.47e-4 -0.109264,0.02009 -0.240508,0.04333 -0.131247,0.02261 -0.342871,0.05966 -0.470974,0.08226 -0.127477,0.02261 -0.23423,0.04082 -0.236745,0.04082 -0.0025,0 -0.005,0.152596 -0.005,0.339101 0,0.186506 0.0025,0.339101 0.005,0.339101 0.0025,0 0.109268,0.01821 0.236745,0.04082 0.128103,0.02261 0.339727,0.05966 0.470974,0.08226 0.131244,0.02323 0.239253,0.0427 0.240508,0.04333 7.2e-4,6.47e-4 0.0088,0.03893 0.01759,0.0854 0.02763,0.145688 0.0628,0.275676 0.116176,0.43204 0.02008,0.05777 0.02324,0.07347 0.01695,0.07975 -0.0044,0.0038 -0.16641,0.139408 -0.359825,0.300795 -0.193412,0.161387 -0.356684,0.298283 -0.362962,0.304563 -0.01069,0.01004 -0.0032,0.02386 0.155734,0.298911 0.144434,0.248674 0.168925,0.288236 0.180855,0.28698 0.0075,-6.48e-4 0.21288,-0.07347 0.455903,-0.162643 l 0.442087,-0.161387 0.0226,0.02449 c 0.176459,0.195297 0.204087,0.2223 0.385571,0.386198 l 0.02511,0.02261 -0.164528,0.45025 c -0.09043,0.248046 -0.163898,0.453391 -0.162643,0.45653 0.0011,0.0031 0.131874,0.08038 0.29012,0.172063 0.275051,0.158875 0.288863,0.16641 0.298912,0.155735 0.0063,-0.0063 0.141293,-0.168295 0.301424,-0.359824 0.160131,-0.191529 0.295772,-0.353544 0.301421,-0.359823 0.01068,-0.01131 0.0132,-0.01068 0.08226,0.01319 0.140663,0.04961 0.287608,0.08917 0.433924,0.11743 0.04521,0.0082 0.08289,0.01633 0.08352,0.01696 7.2e-4,0.0013 0.02011,0.109266 0.04333,0.240511 0.0226,0.131244 0.05966,0.342868 0.08227,0.470973 0.02259,0.127477 0.04082,0.234231 0.04082,0.236743 0,0.0025 0.151967,0.005 0.337842,0.005 h 0.337845 l 0.03267,-0.183366 c 0.01759,-0.101103 0.05526,-0.315239 0.08352,-0.475997 0.02763,-0.160759 0.05149,-0.292632 0.05275,-0.293888 7.19e-4,-6.47e-4 0.04333,-0.01004 0.09482,-0.02009 0.159502,-0.0314 0.263743,-0.05903 0.422619,-0.113662 0.05777,-0.02009 0.07347,-0.02323 0.07975,-0.01696 0.0038,0.0044 0.139411,0.16641 0.300798,0.359823 0.161387,0.193413 0.298283,0.356684 0.304561,0.362964 0.01004,0.01068 0.02385,0.0031 0.298913,-0.155735 0.158246,-0.09168 0.288863,-0.168923 0.290119,-0.172063 0.0011,-0.0044 -0.10236,-0.292003 -0.292005,-0.810074 l -0.0358,-0.09671 0.04082,-0.03517 c 0.13627,-0.119313 0.241138,-0.223555 0.35794,-0.35794 l 0.03454,-0.04019 0.116172,0.04207 c 0.444598,0.163271 0.784959,0.286352 0.789352,0.286352 0.0032,0 0.05903,-0.09231 0.124339,-0.205345 0.06468,-0.113661 0.140033,-0.24365 0.167039,-0.290119 0.03956,-0.06782 0.04772,-0.08603 0.04144,-0.09168 -0.0044,-0.0044 -0.167668,-0.141292 -0.362965,-0.304563 -0.195294,-0.163271 -0.358566,-0.300167 -0.362963,-0.303935 -0.0063,-0.0063 -0.0032,-0.02198 0.01695,-0.07975 0.05275,-0.154479 0.09419,-0.308331 0.11994,-0.447111 0.0075,-0.04019 0.01633,-0.07347 0.01885,-0.07347 0.0025,0 0.142549,-0.02386 0.311473,-0.05338 0.168921,-0.02951 0.37929,-0.06656 0.467204,-0.08163 0.08792,-0.0157 0.162017,-0.02826 0.164528,-0.02826 0.0032,0 0.005,-0.152595 0.005,-0.339101 0,-0.186505 -0.0025,-0.339101 -0.005,-0.339101 -0.0025,0 -0.108012,-0.01821 -0.233604,-0.04019 -0.126221,-0.02198 -0.338475,-0.05966 -0.47223,-0.08289 l -0.243019,-0.0427 -0.0132,-0.07221 c -0.02576,-0.137525 -0.06719,-0.292004 -0.11994,-0.445855 -0.02008,-0.05777 -0.02324,-0.07347 -0.01695,-0.07975 0.0044,-0.0038 0.167669,-0.140665 0.362963,-0.303935 0.195297,-0.163272 0.358569,-0.300168 0.362965,-0.304563 0.0063,-0.0057 -0.0018,-0.02386 -0.04144,-0.09168 -0.02702,-0.04647 -0.10236,-0.176458 -0.167039,-0.29012 -0.06531,-0.113034 -0.121198,-0.205345 -0.124339,-0.205345 -0.0044,0 -0.344754,0.123082 -0.789352,0.286352 l -0.116172,0.04207 -0.03454,-0.04019 c -0.116802,-0.134384 -0.22167,-0.238626 -0.35794,-0.357939 l -0.04082,-0.03517 0.0358,-0.09671 c 0.189645,-0.51807 0.293261,-0.805678 0.292005,-0.810074 -0.0011,-0.0031 -0.131873,-0.08038 -0.290119,-0.172062 -0.275048,-0.158875 -0.288864,-0.166411 -0.298913,-0.155736 -0.0063,0.0063 -0.143174,0.169551 -0.304561,0.362964 -0.161387,0.193413 -0.297031,0.355428 -0.300798,0.359824 -0.0063,0.0063 -0.02198,0.0031 -0.07975,-0.01696 -0.158876,-0.05463 -0.263117,-0.08226 -0.422619,-0.113662 -0.05149,-0.01005 -0.0942,-0.01947 -0.09482,-0.02009 -0.0011,-0.0013 -0.02511,-0.133128 -0.05275,-0.293887 -0.02824,-0.160759 -0.06594,-0.374895 -0.08352,-0.475997 l -0.03267,-0.183366 h -0.337845 c -0.185875,0 -0.337842,0.0025 -0.337842,0.005 z m 0.467833,1.642755 c 0.42576,0.01507 0.882289,0.173946 1.246511,0.433296 0.481645,0.34224 0.816979,0.84838 0.945086,1.422967 0.04019,0.181482 0.054,0.315866 0.054,0.514931 0,0.199065 -0.01382,0.33345 -0.054,0.514931 -0.189019,0.850264 -0.829544,1.53035 -1.667248,1.770232 -0.245534,0.07033 -0.489813,0.09796 -0.760464,0.08729 -1.014166,-0.04019 -1.894569,-0.735975 -2.177154,-1.719368 -0.07033,-0.24365 -0.09859,-0.489812 -0.08791,-0.760465 0.03015,-0.756697 0.430783,-1.460645 1.069422,-1.879498 0.310217,-0.20346 0.652456,-0.327797 1.031745,-0.374267 0.06029,-0.0075 0.254328,-0.01758 0.286982,-0.01444 0.01069,6.48e-4 0.06154,0.0031 0.113035,0.0044 z"
       id="path27745"
       style="fill:#000000;stroke:none;stroke-width:0.000627965" /><g
       id="g27765"
       transform="matrix(0.01818127,0,0,0.01818127,32.588271,-32.330056)"><line
         fill="none"
         y1="501"
         x1="303.10001"
         y2="501"
         x2="302.10001"
         id="line27757" /><g
         id="g27763"><path
           d="M 501,300.8 V 209.1 H 455.7 C 450.4,186.7 441.4,165.8 429.3,147 L 462.2,114.3 397.3,49.7 363.9,83 C 345.1,71.5 324.3,63.1 302.1,58.2 V 11 H 210 v 48.3 c -22,5.4 -42.6,14.4 -61.1,26.4 l -34.2,-34 -64.9,64.6 35.3,35.2 c -2.8,4.6 -5.3,9.2 -7.7,14 -7.5,14.3 -13.2,30 -17.1,45.7 H 11 v 91.7 h 50.3 c 1.5,6 3.3,11.9 5.3,17.8 0.1,0.4 0.3,0.8 0.4,1.2 0,0.1 0.1,0.2 0.1,0.4 4.9,14.2 11.3,27.7 19.1,40.2 l -35.5,35.3 64.9,64.6 35.1,-34.9 c 18.3,11.5 38.6,20.2 60.2,25.4 V 501 H 302 v -47.1 c 22.7,-5 44,-13.7 63.1,-25.6 l 32.2,32 64.9,-64.6 -32.1,-31.9 c 12,-19.1 20.9,-40.3 26,-62.9 H 501 Z m -94.8,64 29.9,29.8 -36.6,36.5 -29.5,-29.4 c -24.7,18.9 -54.4,31.7 -86.7,36 v 42.4 H 232 v -42.7 c -31.5,-4.6 -60.4,-17.2 -84.6,-35.7 l -31.6,31.5 -36.6,-36.5 32.4,-31.3 C 93.7,341.4 81.6,313 77.2,282 H 31.9 v -51.1 h 44 l 1.5,-3.6 C 82.1,197.6 93.9,170.2 111,147 l -32,-31.9 36.6,-36.5 31,31.9 c 24,-18.5 52.8,-31.2 84.1,-36 V 31.8 H 282 v 42.3 c 32,4.1 61.3,16.4 86,34.8 l 30.3,-30.1 35.6,36.5 -29.6,29.5 c 18.2,23.8 30.7,52.2 35.5,83.1 h 45.4 V 279 h -44.7 c -3.9,31.8 -16.1,61.1 -34.3,85.8 z"
           id="path27759" /><path
           d="m 257,143.4 c -61.8,0 -113.1,50 -113.1,112.6 0,62.6 51.4,112.6 113.1,112.6 61.7,0 113.1,-51.1 113.1,-112.6 0,-61.5 -51.3,-112.6 -113.1,-112.6 z m 0,204.3 c -51.3,0 -92.1,-40.7 -92.1,-91.7 0,-51.1 41.9,-91.7 92.1,-91.7 50.2,0 92.1,40.7 92.1,91.7 0.1,51.1 -41.8,91.7 -92.1,91.7 z"
           id="path27761" /></g></g><g
       style="fill:#000000"
       id="g27802"
       transform="matrix(0.05049238,0,0,0.05049238,-45.056283,16.030269)"><g
         id="g27788"><path
           d="m 487.5,208 h -21.792 c -5.402,-24.064 -14.791,-46.742 -27.971,-67.562 l 15.399,-15.4 c 9.163,-9.163 9.163,-24.071 0,-33.234 L 419.195,57.863 c -4.438,-4.439 -10.34,-6.883 -16.617,-6.883 -6.277,0 -12.179,2.445 -16.617,6.883 L 370.562,73.262 C 349.742,60.082 327.064,50.693 303,45.291 V 23.5 C 303,10.542 292.458,0 279.5,0 h -48 C 218.542,0 208,10.542 208,23.5 v 21.792 c -24.064,5.402 -46.742,14.791 -67.562,27.971 L 125.039,57.864 c -4.438,-4.439 -10.34,-6.884 -16.617,-6.884 -6.277,0 -12.179,2.445 -16.617,6.883 L 57.864,91.805 c -9.163,9.163 -9.163,24.071 0,33.234 l 15.4,15.4 C 60.084,161.259 50.695,183.937 45.293,208 H 23.5 C 10.542,208 0,218.542 0,231.5 v 48 C 0,292.458 10.542,303 23.5,303 h 21.793 c 5.402,24.064 14.791,46.741 27.971,67.561 l -15.4,15.4 c -4.438,4.438 -6.883,10.34 -6.883,16.617 0,6.277 2.445,12.178 6.883,16.617 l 33.941,33.941 c 4.438,4.438 10.34,6.883 16.617,6.883 6.277,0 12.179,-2.445 16.617,-6.883 l 15.4,-15.4 c 20.82,13.18 43.497,22.568 67.562,27.971 V 487.5 c 0,12.958 10.542,23.5 23.5,23.5 h 48 c 12.958,0 23.5,-10.542 23.5,-23.5 v -21.792 c 24.064,-5.402 46.741,-14.791 67.562,-27.971 l 15.399,15.4 c 4.438,4.438 10.34,6.883 16.617,6.883 6.277,0 12.179,-2.445 16.617,-6.883 l 33.941,-33.941 c 4.438,-4.438 6.883,-10.34 6.883,-16.617 0,-6.277 -2.445,-12.179 -6.883,-16.617 l -15.399,-15.399 c 13.18,-20.82 22.568,-43.497 27.971,-67.562 H 487.5 c 12.958,0 23.5,-10.542 23.5,-23.5 v -48 C 511,218.542 500.458,208 487.5,208 Z m 8.5,71.5 c 0,4.687 -3.813,8.5 -8.5,8.5 h -27.883 c -3.589,0 -6.675,2.543 -7.361,6.065 -5.14,26.378 -15.351,51.041 -30.348,73.303 -2.005,2.976 -1.621,6.956 0.917,9.493 l 19.705,19.705 c 1.605,1.606 2.49,3.74 2.49,6.011 0,2.27 -0.884,4.405 -2.49,6.01 l -33.941,33.941 c -1.605,1.605 -3.74,2.49 -6.011,2.49 -2.271,0 -4.405,-0.884 -6.01,-2.49 l -19.706,-19.706 c -2.537,-2.538 -6.518,-2.923 -9.493,-0.917 -22.264,14.998 -46.927,25.208 -73.304,30.348 -3.523,0.686 -6.065,3.772 -6.065,7.361 V 487.5 c 0,4.687 -3.813,8.5 -8.5,8.5 h -48 c -4.687,0 -8.5,-3.813 -8.5,-8.5 v -27.883 c 0,-3.589 -2.542,-6.675 -6.065,-7.361 -26.377,-5.14 -51.041,-15.351 -73.303,-30.348 -1.276,-0.859 -2.736,-1.28 -4.188,-1.28 -1.935,0 -3.856,0.747 -5.306,2.197 l -19.706,19.706 c -1.605,1.605 -3.739,2.49 -6.01,2.49 -2.271,0 -4.405,-0.884 -6.011,-2.49 L 68.47,408.589 c -1.605,-1.605 -2.49,-3.74 -2.49,-6.01 0,-2.271 0.884,-4.405 2.49,-6.011 l 19.706,-19.706 c 2.538,-2.538 2.922,-6.517 0.917,-9.493 -14.998,-22.263 -25.208,-46.926 -30.348,-73.303 -0.687,-3.523 -3.772,-6.065 -7.361,-6.065 H 23.5 c -4.687,0 -8.5,-3.813 -8.5,-8.5 v -48 c 0,-4.687 3.813,-8.5 8.5,-8.5 h 27.883 c 3.589,0 6.675,-2.543 7.361,-6.065 5.14,-26.377 15.351,-51.04 30.348,-73.303 2.005,-2.976 1.621,-6.956 -0.917,-9.493 L 68.47,114.432 c -3.314,-3.314 -3.314,-8.707 0,-12.021 L 102.411,68.47 c 1.605,-1.605 3.74,-2.49 6.011,-2.49 2.271,0 4.405,0.884 6.01,2.49 l 19.705,19.705 c 2.538,2.537 6.516,2.922 9.494,0.917 C 165.894,74.095 190.557,63.884 216.935,58.744 220.457,58.057 223,54.972 223,51.382 V 23.5 c 0,-4.687 3.813,-8.5 8.5,-8.5 h 48 c 4.687,0 8.5,3.813 8.5,8.5 v 27.883 c 0,3.589 2.543,6.675 6.065,7.362 26.377,5.14 51.04,15.35 73.304,30.348 2.977,2.005 6.957,1.621 9.494,-0.917 l 19.706,-19.705 c 1.605,-1.605 3.739,-2.49 6.01,-2.49 2.271,0 4.405,0.884 6.011,2.49 l 33.941,33.941 c 3.314,3.314 3.314,8.707 0,12.021 l -19.705,19.705 c -2.538,2.537 -2.922,6.517 -0.917,9.493 14.998,22.264 25.208,46.927 30.348,73.304 0.686,3.523 3.772,6.065 7.361,6.065 H 487.5 c 4.687,0 8.5,3.813 8.5,8.5 z"
           id="path27778" /><path
           d="M 119,255.5 C 119,180.234 180.234,119 255.5,119 c 18.423,0 36.292,3.605 53.108,10.715 3.815,1.613 8.216,-0.172 9.829,-3.987 1.613,-3.815 -0.172,-8.216 -3.988,-9.829 C 295.774,108.004 275.941,104 255.5,104 171.962,104 104,171.963 104,255.5 c 0,34.6 11.969,68.436 33.702,95.275 1.482,1.831 3.648,2.781 5.833,2.781 1.658,0 3.327,-0.547 4.715,-1.672 3.219,-2.607 3.716,-7.329 1.109,-10.548 C 129.782,317.159 119,286.675 119,255.5 Z"
           id="path27780" /><path
           d="m 385.298,192.614 c -3.816,1.611 -5.603,6.011 -3.992,9.827 C 388.402,219.245 392,237.097 392,255.5 392,330.766 330.767,392 255.5,392 c -31.162,0 -61.636,-10.774 -85.808,-30.337 -3.219,-2.606 -7.941,-2.109 -10.548,1.112 -2.605,3.22 -2.108,7.942 1.112,10.548 C 187.089,395.04 220.914,407 255.5,407 339.038,407 407,339.037 407,255.5 c 0,-20.419 -3.996,-40.234 -11.875,-58.894 -1.612,-3.816 -6.013,-5.603 -9.827,-3.992 z"
           id="path27782" /><path
           d="m 341.292,149.324 c 7.479,6.052 14.341,12.914 20.394,20.396 1.482,1.832 3.649,2.783 5.835,2.783 1.657,0 3.324,-0.546 4.712,-1.669 3.221,-2.605 3.719,-7.328 1.114,-10.548 -6.713,-8.299 -14.324,-15.91 -22.621,-22.623 -3.219,-2.605 -7.942,-2.107 -10.548,1.113 -2.605,3.22 -2.106,7.943 1.114,10.548 z"
           id="path27784" /><path
           d="M 255.5,136 C 189.607,136 136,189.608 136,255.5 136,321.392 189.607,375 255.5,375 321.393,375 375,321.393 375,255.5 375,189.607 321.393,136 255.5,136 Z m 0,224 C 197.878,360 151,313.122 151,255.5 151,197.878 197.878,151 255.5,151 313.122,151 360,197.879 360,255.5 360,313.121 313.122,360 255.5,360 Z"
           id="path27786" /></g></g></g></svg>
